<svg width="166" height="42" viewBox="0 0 166 42" fill="none" xmlns="http://www.w3.org/2000/svg">
<path d="M22.5151 0H159.704C163.181 0 166 2.82061 166 6.3V35.7C166 39.1794 163.181 42 159.704 42H16.2185V6.3C16.2185 2.82061 19.0376 0 22.5151 0Z" fill="white"/>
<path d="M16.2168 0L0 2.96858V26.1284C0 27.9109 0.802261 29.836 2.38882 31.8527C3.79524 33.6366 5.78652 35.4633 8.3065 37.2829C11.4527 39.5465 14.6599 41.2324 16.2168 42C17.7764 41.2324 20.9837 39.5469 24.1289 37.2829C26.6507 35.4638 28.6384 33.637 30.0439 31.8527C31.6318 29.8338 32.4368 27.9113 32.4368 26.1284V2.96858L16.2168 0Z" fill="#006B7F"/>
<path d="M20.3922 18.5835H19.8556V16.9055C19.8556 14.9526 18.3306 13.3633 16.4569 13.3633C14.5831 13.3633 13.0582 14.9526 13.0582 16.9055V18.5835H12.5215C11.929 18.5835 11.4482 19.0845 11.4482 19.7021V24.1765C11.4482 24.7941 11.929 25.2951 12.5215 25.2951H20.3922C20.9847 25.2951 21.4655 24.7941 21.4655 24.1765V19.7021C21.4655 19.0845 20.9847 18.5835 20.3922 18.5835ZM18.0668 18.5835H14.8469V16.9055C14.8469 15.9804 15.5692 15.2276 16.4569 15.2276C17.3446 15.2276 18.0668 15.9804 18.0668 16.9055V18.5835Z" fill="white"/>
<path d="M46.4462 20.7591C45.7154 20.7591 45.0231 20.6631 44.369 20.4712C43.715 20.2794 43.1417 20.0158 42.6492 19.6805V17.9113C43.1821 18.2789 43.7523 18.5646 44.3599 18.7686C44.9675 18.9726 45.6024 19.0746 46.2645 19.0746C46.858 19.0746 47.3071 18.9918 47.6119 18.8262C47.9167 18.6606 48.0691 18.4122 48.0691 18.0809C48.0691 17.9153 48.0288 17.7729 47.948 17.6538C47.8673 17.5346 47.731 17.4275 47.5392 17.3326C47.3475 17.2377 47.082 17.1498 46.7429 17.069L45.1684 16.7176C44.2883 16.5278 43.6433 16.2258 43.2336 15.8118C42.8238 15.3977 42.6189 14.8777 42.6189 14.2516C42.6189 13.7305 42.7693 13.27 43.0701 12.8701C43.3708 12.4702 43.8159 12.1581 44.4054 11.9339C44.9948 11.7097 45.7074 11.5977 46.5431 11.5977C47.2819 11.5977 47.9298 11.6835 48.487 11.8552C49.0441 12.0268 49.5124 12.2419 49.8919 12.5005V14.2213C49.5084 13.9506 49.0451 13.7315 48.5021 13.5638C47.9591 13.3962 47.3687 13.3124 46.7308 13.3124C46.1171 13.3124 45.6529 13.3901 45.338 13.5457C45.0231 13.7012 44.8656 13.9223 44.8656 14.2091C44.8656 14.4192 44.9544 14.5888 45.1321 14.7181C45.3097 14.8474 45.6165 14.9605 46.0525 15.0574L47.7118 15.4149C48.6242 15.6128 49.2894 15.9148 49.7072 16.3207C50.1251 16.7267 50.334 17.267 50.334 17.9416C50.334 18.503 50.1745 18.9969 49.8556 19.423C49.5366 19.8492 49.0835 20.1784 48.4961 20.4107C47.9086 20.6429 47.2254 20.7591 46.4462 20.7591ZM55.3058 20.7591C54.5751 20.7591 53.8827 20.6631 53.2287 20.4712C52.5746 20.2794 52.0014 20.0158 51.5088 19.6805V17.9113C52.0417 18.2789 52.612 18.5646 53.2196 18.7686C53.8272 18.9726 54.462 19.0746 55.1241 19.0746C55.7176 19.0746 56.1668 18.9918 56.4716 18.8262C56.7764 18.6606 56.9288 18.4122 56.9288 18.0809C56.9288 17.9153 56.8884 17.7729 56.8077 17.6538C56.7269 17.5346 56.5907 17.4275 56.3989 17.3326C56.2071 17.2377 55.9417 17.1498 55.6026 17.069L54.028 16.7176C53.1479 16.5278 52.503 16.2258 52.0932 15.8118C51.6834 15.3977 51.4785 14.8777 51.4785 14.2516C51.4785 13.7305 51.6289 13.27 51.9297 12.8701C52.2305 12.4702 52.6756 12.1581 53.265 11.9339C53.8544 11.7097 54.567 11.5977 55.4027 11.5977C56.1415 11.5977 56.7895 11.6835 57.3466 11.8552C57.9038 12.0268 58.3721 12.2419 58.7516 12.5005V14.2213C58.368 13.9506 57.9048 13.7315 57.3618 13.5638C56.8188 13.3962 56.2283 13.3124 55.5904 13.3124C54.9768 13.3124 54.5125 13.3901 54.1976 13.5457C53.8827 13.7012 53.7253 13.9223 53.7253 14.2091C53.7253 14.4192 53.8141 14.5888 53.9917 14.7181C54.1693 14.8474 54.4762 14.9605 54.9122 15.0574L56.5715 15.4149C57.4839 15.6128 58.149 15.9148 58.5669 16.3207C58.9847 16.7267 59.1937 17.267 59.1937 17.9416C59.1937 18.503 59.0342 18.9969 58.7152 19.423C58.3963 19.8492 57.9431 20.1784 57.3557 20.4107C56.7683 20.6429 56.085 20.7591 55.3058 20.7591ZM67.8171 18.6808V20.5227H60.7621V11.834H62.9361V18.6808H67.8171Z" fill="black"/>
<path d="M46.4462 20.7591C45.7154 20.7591 45.0231 20.6631 44.369 20.4712C43.715 20.2794 43.1417 20.0158 42.6492 19.6805V17.9113C43.1821 18.2789 43.7523 18.5646 44.3599 18.7686C44.9675 18.9726 45.6024 19.0746 46.2645 19.0746C46.858 19.0746 47.3071 18.9918 47.6119 18.8262C47.9167 18.6606 48.0691 18.4122 48.0691 18.0809C48.0691 17.9153 48.0288 17.7729 47.948 17.6538C47.8673 17.5346 47.731 17.4275 47.5392 17.3326C47.3475 17.2377 47.082 17.1498 46.7429 17.069L45.1684 16.7176C44.2883 16.5278 43.6433 16.2258 43.2336 15.8118C42.8238 15.3977 42.6189 14.8777 42.6189 14.2516C42.6189 13.7305 42.7693 13.27 43.0701 12.8701C43.3708 12.4702 43.8159 12.1581 44.4054 11.9339C44.9948 11.7097 45.7074 11.5977 46.5431 11.5977C47.2819 11.5977 47.9298 11.6835 48.487 11.8552C49.0441 12.0268 49.5124 12.2419 49.8919 12.5005V14.2213C49.5084 13.9506 49.0451 13.7315 48.5021 13.5638C47.9591 13.3962 47.3687 13.3124 46.7308 13.3124C46.1171 13.3124 45.6529 13.3901 45.338 13.5457C45.0231 13.7012 44.8656 13.9223 44.8656 14.2091C44.8656 14.4192 44.9544 14.5888 45.1321 14.7181C45.3097 14.8474 45.6165 14.9605 46.0525 15.0574L47.7118 15.4149C48.6242 15.6128 49.2894 15.9148 49.7072 16.3207C50.1251 16.7267 50.334 17.267 50.334 17.9416C50.334 18.503 50.1745 18.9969 49.8556 19.423C49.5366 19.8492 49.0835 20.1784 48.4961 20.4107C47.9086 20.6429 47.2254 20.7591 46.4462 20.7591ZM55.3058 20.7591C54.5751 20.7591 53.8827 20.6631 53.2287 20.4712C52.5746 20.2794 52.0014 20.0158 51.5088 19.6805V17.9113C52.0417 18.2789 52.612 18.5646 53.2196 18.7686C53.8272 18.9726 54.462 19.0746 55.1241 19.0746C55.7176 19.0746 56.1668 18.9918 56.4716 18.8262C56.7764 18.6606 56.9288 18.4122 56.9288 18.0809C56.9288 17.9153 56.8884 17.7729 56.8077 17.6538C56.7269 17.5346 56.5907 17.4275 56.3989 17.3326C56.2071 17.2377 55.9417 17.1498 55.6026 17.069L54.028 16.7176C53.1479 16.5278 52.503 16.2258 52.0932 15.8118C51.6834 15.3977 51.4785 14.8777 51.4785 14.2516C51.4785 13.7305 51.6289 13.27 51.9297 12.8701C52.2305 12.4702 52.6756 12.1581 53.265 11.9339C53.8544 11.7097 54.567 11.5977 55.4027 11.5977C56.1415 11.5977 56.7895 11.6835 57.3466 11.8552C57.9038 12.0268 58.3721 12.2419 58.7516 12.5005V14.2213C58.368 13.9506 57.9048 13.7315 57.3618 13.5638C56.8188 13.3962 56.2283 13.3124 55.5904 13.3124C54.9768 13.3124 54.5125 13.3901 54.1976 13.5457C53.8827 13.7012 53.7253 13.9223 53.7253 14.2091C53.7253 14.4192 53.8141 14.5888 53.9917 14.7181C54.1693 14.8474 54.4762 14.9605 54.9122 15.0574L56.5715 15.4149C57.4839 15.6128 58.149 15.9148 58.5669 16.3207C58.9847 16.7267 59.1937 17.267 59.1937 17.9416C59.1937 18.503 59.0342 18.9969 58.7152 19.423C58.3963 19.8492 57.9431 20.1784 57.3557 20.4107C56.7683 20.6429 56.085 20.7591 55.3058 20.7591ZM67.8171 18.6808V20.5227H60.7621V11.834H62.9361V18.6808H67.8171Z" fill="#111237"/>
<path d="M45.182 30.7088C44.6944 30.7088 44.2224 30.6365 43.7659 30.492C43.3094 30.3475 42.9041 30.1432 42.55 29.8791V28.8864C42.9507 29.1909 43.3637 29.4224 43.7892 29.5808C44.2146 29.7393 44.6727 29.8185 45.1634 29.8185C45.7006 29.8185 46.1113 29.7253 46.3955 29.5389C46.6796 29.3524 46.8217 29.0775 46.8217 28.7139C46.8217 28.5461 46.7868 28.4016 46.7169 28.2805C46.647 28.1593 46.5283 28.0497 46.3606 27.9519C46.1929 27.854 45.9599 27.7615 45.6618 27.6745L44.1898 27.311C43.1028 27.0127 42.5594 26.4456 42.5594 25.6098C42.5594 25.24 42.6642 24.9114 42.8738 24.624C43.0834 24.3366 43.3854 24.1113 43.7798 23.9482C44.1743 23.785 44.6385 23.7035 45.1727 23.7035C45.6727 23.7035 46.1183 23.7695 46.5096 23.9016C46.9009 24.0336 47.2379 24.2053 47.5205 24.4166V25.4C47.2037 25.139 46.8473 24.9386 46.4514 24.7988C46.0554 24.659 45.6261 24.589 45.1634 24.589C44.6447 24.589 44.2418 24.6745 43.9545 24.8454C43.6673 25.0163 43.5236 25.2555 43.5236 25.5632C43.5236 25.7776 43.6036 25.9562 43.7635 26.0992C43.9235 26.2421 44.1898 26.3664 44.5624 26.472L46.0484 26.8496C46.6696 27.0236 47.1175 27.2589 47.3924 27.5557C47.6672 27.8524 47.8046 28.223 47.8046 28.6673C47.8046 29.0712 47.6983 29.4278 47.4855 29.737C47.2728 30.0461 46.9692 30.2854 46.5748 30.4547C46.1804 30.6241 45.7162 30.7088 45.182 30.7088ZM54.1027 27.9216H49.654C49.6788 28.3193 49.7852 28.6619 49.9731 28.9493C50.161 29.2367 50.4164 29.4565 50.7394 29.6088C51.0623 29.7611 51.4397 29.8372 51.8713 29.8372C52.2657 29.8372 52.6438 29.7665 53.0056 29.6251C53.3674 29.4837 53.6726 29.3043 53.921 29.0868V29.9537C53.6477 30.1805 53.317 30.36 52.9288 30.492C52.5406 30.6241 52.1431 30.6901 51.7362 30.6901C51.1493 30.6901 50.626 30.5666 50.1664 30.3196C49.7068 30.0726 49.3496 29.7269 49.095 29.2825C48.8403 28.8382 48.713 28.3302 48.713 27.7584C48.713 27.2364 48.8287 26.7571 49.06 26.3206C49.2914 25.884 49.6229 25.5375 50.0546 25.2812C50.4863 25.0248 50.9909 24.8967 51.5685 24.8967C52.0903 24.8967 52.5414 24.9945 52.9218 25.1903C53.3022 25.3861 53.5941 25.6704 53.7976 26.0432C54.001 26.4161 54.1027 26.8635 54.1027 27.3856V27.9216ZM51.5266 25.7449C51.185 25.7449 50.8853 25.8071 50.6276 25.9314C50.3698 26.0557 50.1617 26.2289 50.0034 26.4511C49.845 26.6732 49.7394 26.9304 49.6866 27.2224H53.2316C53.2098 26.747 53.0507 26.3819 52.7541 26.1271C52.4575 25.8723 52.0484 25.7449 51.5266 25.7449ZM58.0669 30.6901C57.4613 30.6901 56.9272 30.5627 56.4644 30.3079C56.0017 30.0531 55.6438 29.7051 55.3907 29.2639C55.1376 28.8227 55.011 28.3302 55.011 27.7864C55.011 27.2426 55.1399 26.7509 55.3977 26.3112C55.6554 25.8716 56.0196 25.5259 56.4901 25.2742C56.9605 25.0225 57.5017 24.8967 58.1135 24.8967C58.57 24.8967 58.959 24.9565 59.2804 25.0761C59.6018 25.1957 59.8805 25.355 60.1166 25.5538V26.4907C59.57 25.9935 58.9209 25.7449 58.1694 25.7449C57.7222 25.7449 57.3309 25.8327 56.9955 26.0083C56.6601 26.1838 56.4031 26.4254 56.2245 26.733C56.046 27.0407 55.9567 27.3887 55.9567 27.7771C55.9567 28.1686 56.0452 28.5197 56.2222 28.8304C56.3992 29.1412 56.6578 29.3866 56.9978 29.5668C57.3379 29.7471 57.7439 29.8372 58.216 29.8372C58.5886 29.8372 58.9396 29.7704 59.2687 29.6368C59.5979 29.5031 59.8898 29.3291 60.1445 29.1147V29.9817C59.8464 30.2147 59.5281 30.391 59.1896 30.5107C58.851 30.6303 58.4768 30.6901 58.0669 30.6901ZM66.4006 25.1064V30.5456H65.4969V29.4643C65.3075 29.8993 65.0419 30.2217 64.7003 30.4314C64.3587 30.6412 63.969 30.746 63.5311 30.746C63.0684 30.746 62.6732 30.6528 62.3456 30.4664C62.0179 30.28 61.7679 30.005 61.5956 29.6414C61.4232 29.2779 61.337 28.8351 61.337 28.3131V25.1064H62.2407V28.2152C62.2407 28.7838 62.3727 29.2095 62.6367 29.4923C62.9007 29.775 63.2873 29.9164 63.7966 29.9164C64.1444 29.9164 64.4465 29.8403 64.7027 29.688C64.9589 29.5358 65.1553 29.3245 65.2919 29.0542C65.4286 28.7838 65.4969 28.4731 65.4969 28.122V25.1064H66.4006ZM70.5372 25.0085C70.8198 25.0085 71.0636 25.0846 71.2686 25.2369V26.1644C71.0388 25.9811 70.7437 25.8894 70.3835 25.8894C70.1257 25.8894 69.8944 25.9593 69.6894 26.0992C69.4844 26.239 69.3222 26.4448 69.2026 26.7167C69.083 26.9886 69.0217 27.3141 69.0186 27.6932V30.5456H68.1009V25.1064H69.0186V26.3602C69.1521 25.9189 69.3524 25.5834 69.6195 25.3534C69.8866 25.1235 70.1925 25.0085 70.5372 25.0085ZM77.1427 27.9216H72.694C72.7189 28.3193 72.8252 28.6619 73.0131 28.9493C73.201 29.2367 73.4564 29.4565 73.7794 29.6088C74.1024 29.7611 74.4797 29.8372 74.9114 29.8372C75.3058 29.8372 75.6839 29.7665 76.0457 29.6251C76.4075 29.4837 76.7126 29.3043 76.961 29.0868V29.9537C76.6877 30.1805 76.357 30.36 75.9688 30.492C75.5806 30.6241 75.1831 30.6901 74.7763 30.6901C74.1893 30.6901 73.666 30.5666 73.2064 30.3196C72.7468 30.0726 72.3897 29.7269 72.135 29.2825C71.8804 28.8382 71.753 28.3302 71.753 27.7584C71.753 27.2364 71.8687 26.7571 72.1001 26.3206C72.3314 25.884 72.6629 25.5375 73.0946 25.2812C73.5263 25.0248 74.0309 24.8967 74.6086 24.8967C75.1303 24.8967 75.5814 24.9945 75.9618 25.1903C76.3422 25.3861 76.6342 25.6704 76.8376 26.0432C77.041 26.4161 77.1427 26.8635 77.1427 27.3856V27.9216ZM74.5666 25.7449C74.225 25.7449 73.9254 25.8071 73.6676 25.9314C73.4098 26.0557 73.2018 26.2289 73.0434 26.4511C72.885 26.6732 72.7794 26.9304 72.7266 27.2224H76.2716C76.2499 26.747 76.0907 26.3819 75.7941 26.1271C75.4975 25.8723 75.0884 25.7449 74.5666 25.7449ZM84.5308 30.7367C83.7575 30.7367 83.0828 30.5829 82.5067 30.2753C81.9307 29.9677 81.4889 29.5474 81.1815 29.0145C80.874 28.4816 80.7203 27.8874 80.7203 27.2318C80.7203 26.5482 80.8849 25.936 81.2141 25.3954C81.5433 24.8547 82.0013 24.4321 82.5883 24.1276C83.1752 23.8231 83.8414 23.6709 84.5867 23.6709C85.0929 23.6709 85.5541 23.7361 85.9702 23.8666C86.3863 23.9971 86.7419 24.1804 87.037 24.4166V25.428C86.7016 25.1577 86.3374 24.9472 85.9446 24.7965C85.5517 24.6458 85.1115 24.5704 84.624 24.5704C84.0401 24.5704 83.5285 24.683 83.089 24.9083C82.6496 25.1336 82.3103 25.4443 82.0712 25.8405C81.8321 26.2367 81.7125 26.6849 81.7125 27.1851C81.7125 27.6885 81.8313 28.1406 82.0689 28.5415C82.3064 28.9423 82.6465 29.2569 83.089 29.4853C83.5316 29.7137 84.0463 29.8279 84.6333 29.8279C85.1084 29.8279 85.5541 29.7494 85.9702 29.5925C86.3863 29.4356 86.759 29.2095 87.0882 28.9143V29.8791C86.7342 30.1774 86.3468 30.3949 85.926 30.5316C85.5051 30.6684 85.0401 30.7367 84.5308 30.7367ZM90.894 30.6901C90.3319 30.6901 89.8312 30.5619 89.3917 30.3056C88.9523 30.0492 88.6107 29.6997 88.3669 29.2569C88.1231 28.8141 88.0012 28.324 88.0012 27.7864C88.0012 27.2457 88.1223 26.7556 88.3646 26.3159C88.6068 25.8762 88.9476 25.5298 89.3871 25.2765C89.8265 25.0233 90.3288 24.8967 90.894 24.8967C91.4655 24.8967 91.9693 25.0233 92.4057 25.2765C92.842 25.5298 93.1805 25.8754 93.4212 26.3136C93.6619 26.7517 93.7822 27.2426 93.7822 27.7864C93.7822 28.3271 93.6619 28.818 93.4212 29.2592C93.1805 29.7005 92.8412 30.0492 92.4033 30.3056C91.9655 30.5619 91.4624 30.6901 90.894 30.6901ZM90.894 29.8372C91.2884 29.8372 91.6339 29.7486 91.9305 29.5715C92.2271 29.3944 92.4546 29.1505 92.613 28.8398C92.7713 28.529 92.8505 28.1779 92.8505 27.7864C92.8505 27.3918 92.7713 27.0399 92.613 26.7307C92.4546 26.4215 92.2279 26.18 91.9328 26.0059C91.6378 25.8319 91.2916 25.7449 90.894 25.7449C90.4965 25.7449 90.1503 25.8319 89.8552 26.0059C89.5602 26.18 89.3335 26.4215 89.1751 26.7307C89.0167 27.0399 88.9376 27.3918 88.9376 27.7864C88.9376 28.1779 89.0167 28.529 89.1751 28.8398C89.3335 29.1505 89.561 29.3944 89.8576 29.5715C90.1541 29.7486 90.4996 29.8372 90.894 29.8372ZM98.0119 24.8967C98.4685 24.8967 98.8621 24.9984 99.1928 25.2019C99.5236 25.4055 99.7767 25.7022 99.9521 26.0922C100.128 26.4821 100.215 26.949 100.215 27.4928V30.5456H99.3116V27.7118C99.3116 27.0375 99.1835 26.5412 98.9273 26.2227C98.6711 25.9042 98.2744 25.7449 97.7371 25.7449C97.3644 25.7449 97.0454 25.8265 96.7798 25.9896C96.5143 26.1528 96.3132 26.3742 96.1766 26.6538C96.0399 26.9335 95.9716 27.2473 95.9716 27.5953V30.5456H95.0726V25.1064H95.9716V26.2203C96.3629 25.3379 97.043 24.8967 98.0119 24.8967ZM104.767 24.8967C105.223 24.8967 105.617 24.9984 105.947 25.2019C106.278 25.4055 106.531 25.7022 106.707 26.0922C106.882 26.4821 106.97 26.949 106.97 27.4928V30.5456H106.066V27.7118C106.066 27.0375 105.938 26.5412 105.682 26.2227C105.426 25.9042 105.029 25.7449 104.492 25.7449C104.119 25.7449 103.8 25.8265 103.534 25.9896C103.269 26.1528 103.068 26.3742 102.931 26.6538C102.794 26.9335 102.726 27.2473 102.726 27.5953V30.5456H101.827V25.1064H102.726V26.2203C103.117 25.3379 103.798 24.8967 104.767 24.8967ZM113.561 27.9216H109.113C109.138 28.3193 109.244 28.6619 109.432 28.9493C109.62 29.2367 109.875 29.4565 110.198 29.6088C110.521 29.7611 110.898 29.8372 111.33 29.8372C111.724 29.8372 112.103 29.7665 112.464 29.6251C112.826 29.4837 113.131 29.3043 113.38 29.0868V29.9537C113.106 30.1805 112.776 30.36 112.388 30.492C111.999 30.6241 111.602 30.6901 111.195 30.6901C110.608 30.6901 110.085 30.5666 109.625 30.3196C109.166 30.0726 108.808 29.7269 108.554 29.2825C108.299 28.8382 108.172 28.3302 108.172 27.7584C108.172 27.2364 108.287 26.7571 108.519 26.3206C108.75 25.884 109.082 25.5375 109.513 25.2812C109.945 25.0248 110.45 24.8967 111.027 24.8967C111.549 24.8967 112 24.9945 112.381 25.1903C112.761 25.3861 113.053 25.6704 113.256 26.0432C113.46 26.4161 113.561 26.8635 113.561 27.3856V27.9216ZM110.985 25.7449C110.644 25.7449 110.344 25.8071 110.086 25.9314C109.829 26.0557 109.62 26.2289 109.462 26.4511C109.304 26.6732 109.198 26.9304 109.145 27.2224H112.69C112.669 26.747 112.509 26.3819 112.213 26.1271C111.916 25.8723 111.507 25.7449 110.985 25.7449ZM117.526 30.6901C116.92 30.6901 116.386 30.5627 115.923 30.3079C115.46 30.0531 115.103 29.7051 114.849 29.2639C114.596 28.8227 114.47 28.3302 114.47 27.7864C114.47 27.2426 114.599 26.7509 114.856 26.3112C115.114 25.8716 115.478 25.5259 115.949 25.2742C116.419 25.0225 116.96 24.8967 117.572 24.8967C118.029 24.8967 118.418 24.9565 118.739 25.0761C119.061 25.1957 119.339 25.355 119.575 25.5538V26.4907C119.029 25.9935 118.38 25.7449 117.628 25.7449C117.181 25.7449 116.79 25.8327 116.454 26.0083C116.119 26.1838 115.862 26.4254 115.683 26.733C115.505 27.0407 115.415 27.3887 115.415 27.7771C115.415 28.1686 115.504 28.5197 115.681 28.8304C115.858 29.1412 116.116 29.3866 116.457 29.5668C116.797 29.7471 117.203 29.8372 117.675 29.8372C118.047 29.8372 118.398 29.7704 118.727 29.6368C119.057 29.5031 119.349 29.3291 119.603 29.1147V29.9817C119.305 30.2147 118.987 30.391 118.648 30.5107C118.31 30.6303 117.936 30.6901 117.526 30.6901ZM124.22 25.8568H122.599V30.5456H121.681V25.8568H120.158V25.1064H121.681V24.0251L122.599 23.7221V25.1064H124.22V25.8568ZM125.682 24.589C125.512 24.589 125.369 24.5316 125.254 24.4166C125.139 24.3016 125.081 24.1618 125.081 23.9971C125.081 23.8355 125.14 23.6996 125.256 23.5893C125.373 23.479 125.515 23.4238 125.682 23.4238C125.844 23.4238 125.983 23.479 126.099 23.5893C126.216 23.6996 126.274 23.8355 126.274 23.9971C126.274 24.1618 126.216 24.3016 126.102 24.4166C125.987 24.5316 125.847 24.589 125.682 24.589ZM125.221 25.1064H126.13V30.5456H125.221V25.1064ZM130.336 30.6901C129.774 30.6901 129.273 30.5619 128.834 30.3056C128.394 30.0492 128.053 29.6997 127.809 29.2569C127.565 28.8141 127.443 28.324 127.443 27.7864C127.443 27.2457 127.564 26.7556 127.807 26.3159C128.049 25.8762 128.39 25.5298 128.829 25.2765C129.268 25.0233 129.771 24.8967 130.336 24.8967C130.907 24.8967 131.411 25.0233 131.848 25.2765C132.284 25.5298 132.622 25.8754 132.863 26.3136C133.104 26.7517 133.224 27.2426 133.224 27.7864C133.224 28.3271 133.104 28.818 132.863 29.2592C132.622 29.7005 132.283 30.0492 131.845 30.3056C131.407 30.5619 130.904 30.6901 130.336 30.6901ZM130.336 29.8372C130.73 29.8372 131.076 29.7486 131.372 29.5715C131.669 29.3944 131.897 29.1505 132.055 28.8398C132.213 28.529 132.292 28.1779 132.292 27.7864C132.292 27.3918 132.213 27.0399 132.055 26.7307C131.897 26.4215 131.67 26.18 131.375 26.0059C131.08 25.8319 130.734 25.7449 130.336 25.7449C129.938 25.7449 129.592 25.8319 129.297 26.0059C129.002 26.18 128.775 26.4215 128.617 26.7307C128.459 27.0399 128.38 27.3918 128.38 27.7864C128.38 28.1779 128.459 28.529 128.617 28.8398C128.775 29.1505 129.003 29.3944 129.3 29.5715C129.596 29.7486 129.942 29.8372 130.336 29.8372ZM137.454 24.8967C137.91 24.8967 138.304 24.9984 138.635 25.2019C138.966 25.4055 139.219 25.7022 139.394 26.0922C139.57 26.4821 139.657 26.949 139.657 27.4928V30.5456H138.754V27.7118C138.754 27.0375 138.625 26.5412 138.369 26.2227C138.113 25.9042 137.716 25.7449 137.179 25.7449C136.806 25.7449 136.487 25.8265 136.222 25.9896C135.956 26.1528 135.755 26.3742 135.619 26.6538C135.482 26.9335 135.414 27.2473 135.414 27.5953V30.5456H134.515V25.1064H135.414V26.2203C135.805 25.3379 136.485 24.8967 137.454 24.8967Z" fill="black"/>
<path d="M45.182 30.7088C44.6944 30.7088 44.2224 30.6365 43.7659 30.492C43.3094 30.3475 42.9041 30.1432 42.55 29.8791V28.8864C42.9507 29.1909 43.3637 29.4224 43.7892 29.5808C44.2146 29.7393 44.6727 29.8185 45.1634 29.8185C45.7006 29.8185 46.1113 29.7253 46.3955 29.5389C46.6796 29.3524 46.8217 29.0775 46.8217 28.7139C46.8217 28.5461 46.7868 28.4016 46.7169 28.2805C46.647 28.1593 46.5283 28.0497 46.3606 27.9519C46.1929 27.854 45.9599 27.7615 45.6618 27.6745L44.1898 27.311C43.1028 27.0127 42.5594 26.4456 42.5594 25.6098C42.5594 25.24 42.6642 24.9114 42.8738 24.624C43.0834 24.3366 43.3854 24.1113 43.7798 23.9482C44.1743 23.785 44.6385 23.7035 45.1727 23.7035C45.6727 23.7035 46.1183 23.7695 46.5096 23.9016C46.9009 24.0336 47.2379 24.2053 47.5205 24.4166V25.4C47.2037 25.139 46.8473 24.9386 46.4514 24.7988C46.0554 24.659 45.6261 24.589 45.1634 24.589C44.6447 24.589 44.2418 24.6745 43.9545 24.8454C43.6673 25.0163 43.5236 25.2555 43.5236 25.5632C43.5236 25.7776 43.6036 25.9562 43.7635 26.0992C43.9235 26.2421 44.1898 26.3664 44.5624 26.472L46.0484 26.8496C46.6696 27.0236 47.1175 27.2589 47.3924 27.5557C47.6672 27.8524 47.8046 28.223 47.8046 28.6673C47.8046 29.0712 47.6983 29.4278 47.4855 29.737C47.2728 30.0461 46.9692 30.2854 46.5748 30.4547C46.1804 30.6241 45.7162 30.7088 45.182 30.7088ZM54.1027 27.9216H49.654C49.6788 28.3193 49.7852 28.6619 49.9731 28.9493C50.161 29.2367 50.4164 29.4565 50.7394 29.6088C51.0623 29.7611 51.4397 29.8372 51.8713 29.8372C52.2657 29.8372 52.6438 29.7665 53.0056 29.6251C53.3674 29.4837 53.6726 29.3043 53.921 29.0868V29.9537C53.6477 30.1805 53.317 30.36 52.9288 30.492C52.5406 30.6241 52.1431 30.6901 51.7362 30.6901C51.1493 30.6901 50.626 30.5666 50.1664 30.3196C49.7068 30.0726 49.3496 29.7269 49.095 29.2825C48.8403 28.8382 48.713 28.3302 48.713 27.7584C48.713 27.2364 48.8287 26.7571 49.06 26.3206C49.2914 25.884 49.6229 25.5375 50.0546 25.2812C50.4863 25.0248 50.9909 24.8967 51.5685 24.8967C52.0903 24.8967 52.5414 24.9945 52.9218 25.1903C53.3022 25.3861 53.5941 25.6704 53.7976 26.0432C54.001 26.4161 54.1027 26.8635 54.1027 27.3856V27.9216ZM51.5266 25.7449C51.185 25.7449 50.8853 25.8071 50.6276 25.9314C50.3698 26.0557 50.1617 26.2289 50.0034 26.4511C49.845 26.6732 49.7394 26.9304 49.6866 27.2224H53.2316C53.2098 26.747 53.0507 26.3819 52.7541 26.1271C52.4575 25.8723 52.0484 25.7449 51.5266 25.7449ZM58.0669 30.6901C57.4613 30.6901 56.9272 30.5627 56.4644 30.3079C56.0017 30.0531 55.6438 29.7051 55.3907 29.2639C55.1376 28.8227 55.011 28.3302 55.011 27.7864C55.011 27.2426 55.1399 26.7509 55.3977 26.3112C55.6554 25.8716 56.0196 25.5259 56.4901 25.2742C56.9605 25.0225 57.5017 24.8967 58.1135 24.8967C58.57 24.8967 58.959 24.9565 59.2804 25.0761C59.6018 25.1957 59.8805 25.355 60.1166 25.5538V26.4907C59.57 25.9935 58.9209 25.7449 58.1694 25.7449C57.7222 25.7449 57.3309 25.8327 56.9955 26.0083C56.6601 26.1838 56.4031 26.4254 56.2245 26.733C56.046 27.0407 55.9567 27.3887 55.9567 27.7771C55.9567 28.1686 56.0452 28.5197 56.2222 28.8304C56.3992 29.1412 56.6578 29.3866 56.9978 29.5668C57.3379 29.7471 57.7439 29.8372 58.216 29.8372C58.5886 29.8372 58.9396 29.7704 59.2687 29.6368C59.5979 29.5031 59.8898 29.3291 60.1445 29.1147V29.9817C59.8464 30.2147 59.5281 30.391 59.1896 30.5107C58.851 30.6303 58.4768 30.6901 58.0669 30.6901ZM66.4006 25.1064V30.5456H65.4969V29.4643C65.3075 29.8993 65.0419 30.2217 64.7003 30.4314C64.3587 30.6412 63.969 30.746 63.5311 30.746C63.0684 30.746 62.6732 30.6528 62.3456 30.4664C62.0179 30.28 61.7679 30.005 61.5956 29.6414C61.4232 29.2779 61.337 28.8351 61.337 28.3131V25.1064H62.2407V28.2152C62.2407 28.7838 62.3727 29.2095 62.6367 29.4923C62.9007 29.775 63.2873 29.9164 63.7966 29.9164C64.1444 29.9164 64.4465 29.8403 64.7027 29.688C64.9589 29.5358 65.1553 29.3245 65.2919 29.0542C65.4286 28.7838 65.4969 28.4731 65.4969 28.122V25.1064H66.4006ZM70.5372 25.0085C70.8198 25.0085 71.0636 25.0846 71.2686 25.2369V26.1644C71.0388 25.9811 70.7437 25.8894 70.3835 25.8894C70.1257 25.8894 69.8944 25.9593 69.6894 26.0992C69.4844 26.239 69.3222 26.4448 69.2026 26.7167C69.083 26.9886 69.0217 27.3141 69.0186 27.6932V30.5456H68.1009V25.1064H69.0186V26.3602C69.1521 25.9189 69.3524 25.5834 69.6195 25.3534C69.8866 25.1235 70.1925 25.0085 70.5372 25.0085ZM77.1427 27.9216H72.694C72.7189 28.3193 72.8252 28.6619 73.0131 28.9493C73.201 29.2367 73.4564 29.4565 73.7794 29.6088C74.1024 29.7611 74.4797 29.8372 74.9114 29.8372C75.3058 29.8372 75.6839 29.7665 76.0457 29.6251C76.4075 29.4837 76.7126 29.3043 76.961 29.0868V29.9537C76.6877 30.1805 76.357 30.36 75.9688 30.492C75.5806 30.6241 75.1831 30.6901 74.7763 30.6901C74.1893 30.6901 73.666 30.5666 73.2064 30.3196C72.7468 30.0726 72.3897 29.7269 72.135 29.2825C71.8804 28.8382 71.753 28.3302 71.753 27.7584C71.753 27.2364 71.8687 26.7571 72.1001 26.3206C72.3314 25.884 72.6629 25.5375 73.0946 25.2812C73.5263 25.0248 74.0309 24.8967 74.6086 24.8967C75.1303 24.8967 75.5814 24.9945 75.9618 25.1903C76.3422 25.3861 76.6342 25.6704 76.8376 26.0432C77.041 26.4161 77.1427 26.8635 77.1427 27.3856V27.9216ZM74.5666 25.7449C74.225 25.7449 73.9254 25.8071 73.6676 25.9314C73.4098 26.0557 73.2018 26.2289 73.0434 26.4511C72.885 26.6732 72.7794 26.9304 72.7266 27.2224H76.2716C76.2499 26.747 76.0907 26.3819 75.7941 26.1271C75.4975 25.8723 75.0884 25.7449 74.5666 25.7449ZM84.5308 30.7367C83.7575 30.7367 83.0828 30.5829 82.5067 30.2753C81.9307 29.9677 81.4889 29.5474 81.1815 29.0145C80.874 28.4816 80.7203 27.8874 80.7203 27.2318C80.7203 26.5482 80.8849 25.936 81.2141 25.3954C81.5433 24.8547 82.0013 24.4321 82.5883 24.1276C83.1752 23.8231 83.8414 23.6709 84.5867 23.6709C85.0929 23.6709 85.5541 23.7361 85.9702 23.8666C86.3863 23.9971 86.7419 24.1804 87.037 24.4166V25.428C86.7016 25.1577 86.3374 24.9472 85.9446 24.7965C85.5517 24.6458 85.1115 24.5704 84.624 24.5704C84.0401 24.5704 83.5285 24.683 83.089 24.9083C82.6496 25.1336 82.3103 25.4443 82.0712 25.8405C81.8321 26.2367 81.7125 26.6849 81.7125 27.1851C81.7125 27.6885 81.8313 28.1406 82.0689 28.5415C82.3064 28.9423 82.6465 29.2569 83.089 29.4853C83.5316 29.7137 84.0463 29.8279 84.6333 29.8279C85.1084 29.8279 85.5541 29.7494 85.9702 29.5925C86.3863 29.4356 86.759 29.2095 87.0882 28.9143V29.8791C86.7342 30.1774 86.3468 30.3949 85.926 30.5316C85.5051 30.6684 85.0401 30.7367 84.5308 30.7367ZM90.894 30.6901C90.3319 30.6901 89.8312 30.5619 89.3917 30.3056C88.9523 30.0492 88.6107 29.6997 88.3669 29.2569C88.1231 28.8141 88.0012 28.324 88.0012 27.7864C88.0012 27.2457 88.1223 26.7556 88.3646 26.3159C88.6068 25.8762 88.9476 25.5298 89.3871 25.2765C89.8265 25.0233 90.3288 24.8967 90.894 24.8967C91.4655 24.8967 91.9693 25.0233 92.4057 25.2765C92.842 25.5298 93.1805 25.8754 93.4212 26.3136C93.6619 26.7517 93.7822 27.2426 93.7822 27.7864C93.7822 28.3271 93.6619 28.818 93.4212 29.2592C93.1805 29.7005 92.8412 30.0492 92.4033 30.3056C91.9655 30.5619 91.4624 30.6901 90.894 30.6901ZM90.894 29.8372C91.2884 29.8372 91.6339 29.7486 91.9305 29.5715C92.2271 29.3944 92.4546 29.1505 92.613 28.8398C92.7713 28.529 92.8505 28.1779 92.8505 27.7864C92.8505 27.3918 92.7713 27.0399 92.613 26.7307C92.4546 26.4215 92.2279 26.18 91.9328 26.0059C91.6378 25.8319 91.2916 25.7449 90.894 25.7449C90.4965 25.7449 90.1503 25.8319 89.8552 26.0059C89.5602 26.18 89.3335 26.4215 89.1751 26.7307C89.0167 27.0399 88.9376 27.3918 88.9376 27.7864C88.9376 28.1779 89.0167 28.529 89.1751 28.8398C89.3335 29.1505 89.561 29.3944 89.8576 29.5715C90.1541 29.7486 90.4996 29.8372 90.894 29.8372ZM98.0119 24.8967C98.4685 24.8967 98.8621 24.9984 99.1928 25.2019C99.5236 25.4055 99.7767 25.7022 99.9521 26.0922C100.128 26.4821 100.215 26.949 100.215 27.4928V30.5456H99.3116V27.7118C99.3116 27.0375 99.1835 26.5412 98.9273 26.2227C98.6711 25.9042 98.2744 25.7449 97.7371 25.7449C97.3644 25.7449 97.0454 25.8265 96.7798 25.9896C96.5143 26.1528 96.3132 26.3742 96.1766 26.6538C96.0399 26.9335 95.9716 27.2473 95.9716 27.5953V30.5456H95.0726V25.1064H95.9716V26.2203C96.3629 25.3379 97.043 24.8967 98.0119 24.8967ZM104.767 24.8967C105.223 24.8967 105.617 24.9984 105.947 25.2019C106.278 25.4055 106.531 25.7022 106.707 26.0922C106.882 26.4821 106.97 26.949 106.97 27.4928V30.5456H106.066V27.7118C106.066 27.0375 105.938 26.5412 105.682 26.2227C105.426 25.9042 105.029 25.7449 104.492 25.7449C104.119 25.7449 103.8 25.8265 103.534 25.9896C103.269 26.1528 103.068 26.3742 102.931 26.6538C102.794 26.9335 102.726 27.2473 102.726 27.5953V30.5456H101.827V25.1064H102.726V26.2203C103.117 25.3379 103.798 24.8967 104.767 24.8967ZM113.561 27.9216H109.113C109.138 28.3193 109.244 28.6619 109.432 28.9493C109.62 29.2367 109.875 29.4565 110.198 29.6088C110.521 29.7611 110.898 29.8372 111.33 29.8372C111.724 29.8372 112.103 29.7665 112.464 29.6251C112.826 29.4837 113.131 29.3043 113.38 29.0868V29.9537C113.106 30.1805 112.776 30.36 112.388 30.492C111.999 30.6241 111.602 30.6901 111.195 30.6901C110.608 30.6901 110.085 30.5666 109.625 30.3196C109.166 30.0726 108.808 29.7269 108.554 29.2825C108.299 28.8382 108.172 28.3302 108.172 27.7584C108.172 27.2364 108.287 26.7571 108.519 26.3206C108.75 25.884 109.082 25.5375 109.513 25.2812C109.945 25.0248 110.45 24.8967 111.027 24.8967C111.549 24.8967 112 24.9945 112.381 25.1903C112.761 25.3861 113.053 25.6704 113.256 26.0432C113.46 26.4161 113.561 26.8635 113.561 27.3856V27.9216ZM110.985 25.7449C110.644 25.7449 110.344 25.8071 110.086 25.9314C109.829 26.0557 109.62 26.2289 109.462 26.4511C109.304 26.6732 109.198 26.9304 109.145 27.2224H112.69C112.669 26.747 112.509 26.3819 112.213 26.1271C111.916 25.8723 111.507 25.7449 110.985 25.7449ZM117.526 30.6901C116.92 30.6901 116.386 30.5627 115.923 30.3079C115.46 30.0531 115.103 29.7051 114.849 29.2639C114.596 28.8227 114.47 28.3302 114.47 27.7864C114.47 27.2426 114.599 26.7509 114.856 26.3112C115.114 25.8716 115.478 25.5259 115.949 25.2742C116.419 25.0225 116.96 24.8967 117.572 24.8967C118.029 24.8967 118.418 24.9565 118.739 25.0761C119.061 25.1957 119.339 25.355 119.575 25.5538V26.4907C119.029 25.9935 118.38 25.7449 117.628 25.7449C117.181 25.7449 116.79 25.8327 116.454 26.0083C116.119 26.1838 115.862 26.4254 115.683 26.733C115.505 27.0407 115.415 27.3887 115.415 27.7771C115.415 28.1686 115.504 28.5197 115.681 28.8304C115.858 29.1412 116.116 29.3866 116.457 29.5668C116.797 29.7471 117.203 29.8372 117.675 29.8372C118.047 29.8372 118.398 29.7704 118.727 29.6368C119.057 29.5031 119.349 29.3291 119.603 29.1147V29.9817C119.305 30.2147 118.987 30.391 118.648 30.5107C118.31 30.6303 117.936 30.6901 117.526 30.6901ZM124.22 25.8568H122.599V30.5456H121.681V25.8568H120.158V25.1064H121.681V24.0251L122.599 23.7221V25.1064H124.22V25.8568ZM125.682 24.589C125.512 24.589 125.369 24.5316 125.254 24.4166C125.139 24.3016 125.081 24.1618 125.081 23.9971C125.081 23.8355 125.14 23.6996 125.256 23.5893C125.373 23.479 125.515 23.4238 125.682 23.4238C125.844 23.4238 125.983 23.479 126.099 23.5893C126.216 23.6996 126.274 23.8355 126.274 23.9971C126.274 24.1618 126.216 24.3016 126.102 24.4166C125.987 24.5316 125.847 24.589 125.682 24.589ZM125.221 25.1064H126.13V30.5456H125.221V25.1064ZM130.336 30.6901C129.774 30.6901 129.273 30.5619 128.834 30.3056C128.394 30.0492 128.053 29.6997 127.809 29.2569C127.565 28.8141 127.443 28.324 127.443 27.7864C127.443 27.2457 127.564 26.7556 127.807 26.3159C128.049 25.8762 128.39 25.5298 128.829 25.2765C129.268 25.0233 129.771 24.8967 130.336 24.8967C130.907 24.8967 131.411 25.0233 131.848 25.2765C132.284 25.5298 132.622 25.8754 132.863 26.3136C133.104 26.7517 133.224 27.2426 133.224 27.7864C133.224 28.3271 133.104 28.818 132.863 29.2592C132.622 29.7005 132.283 30.0492 131.845 30.3056C131.407 30.5619 130.904 30.6901 130.336 30.6901ZM130.336 29.8372C130.73 29.8372 131.076 29.7486 131.372 29.5715C131.669 29.3944 131.897 29.1505 132.055 28.8398C132.213 28.529 132.292 28.1779 132.292 27.7864C132.292 27.3918 132.213 27.0399 132.055 26.7307C131.897 26.4215 131.67 26.18 131.375 26.0059C131.08 25.8319 130.734 25.7449 130.336 25.7449C129.938 25.7449 129.592 25.8319 129.297 26.0059C129.002 26.18 128.775 26.4215 128.617 26.7307C128.459 27.0399 128.38 27.3918 128.38 27.7864C128.38 28.1779 128.459 28.529 128.617 28.8398C128.775 29.1505 129.003 29.3944 129.3 29.5715C129.596 29.7486 129.942 29.8372 130.336 29.8372ZM137.454 24.8967C137.91 24.8967 138.304 24.9984 138.635 25.2019C138.966 25.4055 139.219 25.7022 139.394 26.0922C139.57 26.4821 139.657 26.949 139.657 27.4928V30.5456H138.754V27.7118C138.754 27.0375 138.625 26.5412 138.369 26.2227C138.113 25.9042 137.716 25.7449 137.179 25.7449C136.806 25.7449 136.487 25.8265 136.222 25.9896C135.956 26.1528 135.755 26.3742 135.619 26.6538C135.482 26.9335 135.414 27.2473 135.414 27.5953V30.5456H134.515V25.1064H135.414V26.2203C135.805 25.3379 136.485 24.8967 137.454 24.8967Z" fill="#111237"/>
</svg>
