<svg width="130" height="42" viewBox="0 0 130 42" fill="none" xmlns="http://www.w3.org/2000/svg">
<path d="M6.28571 0H123.714C127.186 0 130 2.82061 130 6.3V35.7C130 39.1794 127.186 42 123.714 42H6.28571C2.81421 42 0 39.1794 0 35.7V6.3C0 2.82061 2.81421 0 6.28571 0Z" fill="white"/>
<path d="M6.28571 0H41.9048V42H6.28571C2.81421 42 0 39.1794 0 35.7V6.3C0 2.82061 2.81421 0 6.28571 0Z" fill="#FF6743"/>
<path d="M20.5233 24.7518C20.393 24.8933 20.1357 25.009 19.9514 25.009H19.5608C19.3765 25.009 19.1192 24.8929 18.9891 24.7518L16.8594 22.4343C16.7293 22.2928 16.7295 22.0614 16.8599 21.9203L17.6981 21.0125C17.8285 20.871 18.0418 20.871 18.1724 21.0121L19.533 22.4828C19.6637 22.6241 19.877 22.6239 20.0072 22.4824L23.7364 18.4336C23.8667 18.2923 24.0802 18.2915 24.211 18.4322L25.0446 19.329C25.1752 19.4699 25.1758 19.7004 25.0457 19.842L20.5233 24.7518Z" fill="white"/>
<path d="M20.9523 6.2998L21.4275 7.84116H22.9654L21.7213 8.79374L22.1964 10.3351L20.9523 9.38191L19.7085 10.3351L20.1837 8.79374L18.9392 7.84116H20.4771L20.9523 6.2998Z" fill="white"/>
<path d="M20.9523 31.6641L21.4275 33.2059H22.9654L21.7213 34.1583L22.1964 35.6994L20.9523 34.747L19.7085 35.6994L20.1837 34.1583L18.9392 33.2059H20.4771L20.9523 31.6641Z" fill="white"/>
<path d="M27.2792 8.60547L27.7542 10.1468H29.2923L28.0479 11.0998L28.5232 12.6408L27.2792 11.6878L26.0349 12.6408L26.5101 11.0998L25.2661 10.1468H26.8042L27.2792 8.60547Z" fill="white"/>
<path d="M32.3941 25.2002L32.8691 26.7421H34.407L33.1628 27.6946L33.6383 29.2355L32.3941 28.2833L31.1499 29.2355L31.6251 27.6946L30.3809 26.7421H31.9189L32.3941 25.2002Z" fill="white"/>
<path d="M33.606 18.9824L34.0809 20.5236H35.6189L34.3747 21.4761L34.8499 23.0177L33.606 22.0656L32.3618 23.0177L32.8373 21.4761L31.5928 20.5236H33.1305L33.606 18.9824Z" fill="white"/>
<path d="M8.299 18.9824L8.77398 20.5236H10.3118L9.0675 21.4761L9.54305 23.0177L8.299 22.0656L7.05463 23.0177L7.52994 21.4761L6.28564 20.5236H7.8237L8.299 18.9824Z" fill="white"/>
<path d="M9.34661 25.2002L9.82159 26.7421H11.3594L10.1154 27.6946L10.5903 29.2355L9.34661 28.2833L8.10232 29.2355L8.57754 27.6946L7.33325 26.7421H8.87138L9.34661 25.2002Z" fill="white"/>
<path d="M32.3941 12.5996L32.8691 14.1415H34.407L33.1628 15.094L33.6383 16.6349L32.3941 15.6827L31.1499 16.6349L31.6251 15.094L30.3809 14.1415H31.9189L32.3941 12.5996Z" fill="white"/>
<path d="M9.87054 12.5996L10.3455 14.1415H11.8833L10.6394 15.094L11.1143 16.6349L9.87054 15.6827L8.62624 16.6349L9.10147 15.094L7.85718 14.1415H9.39531L9.87054 12.5996Z" fill="white"/>
<path d="M28.4295 30.5117L28.9044 32.0528H30.4424L29.1979 33.0059L29.6734 34.547L28.4295 33.5946L27.1849 34.547L27.6605 33.0059L26.4163 32.0528H27.9543L28.4295 30.5117Z" fill="white"/>
<path d="M14.6257 8.60547L15.1006 10.1468H16.6387L15.3944 11.0998L15.87 12.6408L14.6257 11.6878L13.3816 12.6408L13.8568 11.0998L12.6125 10.1468H14.1504L14.6257 8.60547Z" fill="white"/>
<path d="M13.4751 30.5117L13.9503 32.0536H15.4883L14.2441 33.0058L14.7193 34.547L13.4751 33.5951L12.2312 34.547L12.7063 33.0058L11.4622 32.0536H12.9998L13.4751 30.5117Z" fill="white"/>
<path d="M61.9657 15.4994V16.4143C61.9657 17.3474 61.7722 18.1401 61.3853 18.7925C60.9984 19.4449 60.4513 19.9387 59.744 20.2739C59.0367 20.6092 58.2095 20.7769 57.2624 20.7769C56.1944 20.7769 55.2583 20.5779 54.4543 20.18C53.6503 19.7821 53.0316 19.2348 52.5984 18.538C52.1651 17.8412 51.9485 17.0586 51.9485 16.1901C51.9485 15.3297 52.1591 14.5511 52.5802 13.8543C53.0014 13.1575 53.6291 12.6041 54.4634 12.1941C55.2976 11.7841 56.3092 11.5791 57.4982 11.5791C58.272 11.5791 58.9611 11.6548 59.5657 11.8063C60.1702 11.9578 60.7183 12.1668 61.21 12.4334V14.3602C60.7868 14.0936 60.2861 13.8806 59.7077 13.721C59.1294 13.5614 58.5097 13.4817 57.8488 13.4817C57.0185 13.4817 56.3314 13.6039 55.7873 13.8482C55.2432 14.0926 54.8442 14.4208 54.5903 14.8329C54.3364 15.2449 54.2095 15.7114 54.2095 16.2325C54.2095 16.7698 54.3374 17.2444 54.5933 17.6564C54.8493 18.0684 55.214 18.3885 55.6876 18.6168C56.1611 18.845 56.7163 18.9591 57.3531 18.9591C58.0987 18.9591 58.7012 18.7955 59.1606 18.4683C59.6201 18.1411 59.9002 17.6786 60.0009 17.0808H55.4306L55.8175 15.4994H61.9657ZM63.5677 11.8336H67.8902C68.9622 11.8336 69.869 12.0164 70.6106 12.3819C71.3522 12.7475 71.9093 13.2544 72.2821 13.9028C72.6549 14.5511 72.8413 15.2974 72.8413 16.1416C72.8413 16.9899 72.6418 17.7443 72.2428 18.4047C71.8439 19.0652 71.2474 19.5832 70.4534 19.9589C69.6594 20.3345 68.6922 20.5224 67.5516 20.5224H63.5677V11.8336ZM67.5214 18.8622C68.1662 18.8622 68.7144 18.7531 69.1657 18.535C69.6171 18.3168 69.9587 18.0028 70.1904 17.5928C70.4222 17.1828 70.538 16.695 70.538 16.1295C70.538 15.3176 70.3043 14.6763 69.8368 14.2057C69.3693 13.7351 68.662 13.4998 67.7149 13.4998H65.738V18.8622H67.5214ZM79.455 11.8215C80.12 11.8215 80.6913 11.9447 81.1689 12.1911C81.6464 12.4375 82.0102 12.7839 82.2601 13.2302C82.5099 13.6766 82.6349 14.1946 82.6349 14.7844C82.6349 15.3661 82.4968 15.8791 82.2208 16.3234C81.9447 16.7677 81.5376 17.1141 80.9996 17.3625C80.4615 17.611 79.8157 17.7352 79.062 17.7352H76.6197V20.5224H74.4494V11.8215H79.455ZM78.5965 16.2204C79.1809 16.2204 79.6293 16.0992 79.9416 15.8568C80.254 15.6145 80.4102 15.2711 80.4102 14.8268C80.4102 14.3946 80.2671 14.0573 79.9809 13.8149C79.6948 13.5726 79.2918 13.4514 78.7719 13.4514H76.6197V16.2204H78.5965ZM89.6596 20.5224L86.1835 16.7657V20.5224H84.0132V11.8336H89.2062C89.8027 11.8336 90.3296 11.9487 90.7871 12.179C91.2445 12.4092 91.5982 12.7313 91.848 13.1454C92.0979 13.5594 92.2229 14.031 92.2229 14.5602C92.2229 15.0894 92.108 15.5539 91.8783 15.9538C91.6485 16.3537 91.3171 16.6637 90.8838 16.8839C90.4505 17.104 89.9417 17.2141 89.3573 17.2141H89.1034L92.3679 20.5224H89.6596ZM86.1835 15.9901H88.3659C88.8818 15.9901 89.2787 15.8791 89.5568 15.6569C89.8349 15.4347 89.974 15.1156 89.974 14.6996C89.974 14.3158 89.845 14.0169 89.5871 13.8028C89.3291 13.5887 88.9664 13.4817 88.4989 13.4817H86.1835V15.9901Z" fill="black"/>
<path d="M61.9657 15.4994V16.4143C61.9657 17.3474 61.7722 18.1401 61.3853 18.7925C60.9984 19.4449 60.4513 19.9387 59.744 20.2739C59.0367 20.6092 58.2095 20.7769 57.2624 20.7769C56.1944 20.7769 55.2583 20.5779 54.4543 20.18C53.6503 19.7821 53.0316 19.2348 52.5984 18.538C52.1651 17.8412 51.9485 17.0586 51.9485 16.1901C51.9485 15.3297 52.1591 14.5511 52.5802 13.8543C53.0014 13.1575 53.6291 12.6041 54.4634 12.1941C55.2976 11.7841 56.3092 11.5791 57.4982 11.5791C58.272 11.5791 58.9611 11.6548 59.5657 11.8063C60.1702 11.9578 60.7183 12.1668 61.21 12.4334V14.3602C60.7868 14.0936 60.2861 13.8806 59.7077 13.721C59.1294 13.5614 58.5097 13.4817 57.8488 13.4817C57.0185 13.4817 56.3314 13.6039 55.7873 13.8482C55.2432 14.0926 54.8442 14.4208 54.5903 14.8329C54.3364 15.2449 54.2095 15.7114 54.2095 16.2325C54.2095 16.7698 54.3374 17.2444 54.5933 17.6564C54.8493 18.0684 55.214 18.3885 55.6876 18.6168C56.1611 18.845 56.7163 18.9591 57.3531 18.9591C58.0987 18.9591 58.7012 18.7955 59.1606 18.4683C59.6201 18.1411 59.9002 17.6786 60.0009 17.0808H55.4306L55.8175 15.4994H61.9657ZM63.5677 11.8336H67.8902C68.9622 11.8336 69.869 12.0164 70.6106 12.3819C71.3522 12.7475 71.9093 13.2544 72.2821 13.9028C72.6549 14.5511 72.8413 15.2974 72.8413 16.1416C72.8413 16.9899 72.6418 17.7443 72.2428 18.4047C71.8439 19.0652 71.2474 19.5832 70.4534 19.9589C69.6594 20.3345 68.6922 20.5224 67.5516 20.5224H63.5677V11.8336ZM67.5214 18.8622C68.1662 18.8622 68.7144 18.7531 69.1657 18.535C69.6171 18.3168 69.9587 18.0028 70.1904 17.5928C70.4222 17.1828 70.538 16.695 70.538 16.1295C70.538 15.3176 70.3043 14.6763 69.8368 14.2057C69.3693 13.7351 68.662 13.4998 67.7149 13.4998H65.738V18.8622H67.5214ZM79.455 11.8215C80.12 11.8215 80.6913 11.9447 81.1689 12.1911C81.6464 12.4375 82.0102 12.7839 82.2601 13.2302C82.5099 13.6766 82.6349 14.1946 82.6349 14.7844C82.6349 15.3661 82.4968 15.8791 82.2208 16.3234C81.9447 16.7677 81.5376 17.1141 80.9996 17.3625C80.4615 17.611 79.8157 17.7352 79.062 17.7352H76.6197V20.5224H74.4494V11.8215H79.455ZM78.5965 16.2204C79.1809 16.2204 79.6293 16.0992 79.9416 15.8568C80.254 15.6145 80.4102 15.2711 80.4102 14.8268C80.4102 14.3946 80.2671 14.0573 79.9809 13.8149C79.6948 13.5726 79.2918 13.4514 78.7719 13.4514H76.6197V16.2204H78.5965ZM89.6596 20.5224L86.1835 16.7657V20.5224H84.0132V11.8336H89.2062C89.8027 11.8336 90.3296 11.9487 90.7871 12.179C91.2445 12.4092 91.5982 12.7313 91.848 13.1454C92.0979 13.5594 92.2229 14.031 92.2229 14.5602C92.2229 15.0894 92.108 15.5539 91.8783 15.9538C91.6485 16.3537 91.3171 16.6637 90.8838 16.8839C90.4505 17.104 89.9417 17.2141 89.3573 17.2141H89.1034L92.3679 20.5224H89.6596ZM86.1835 15.9901H88.3659C88.8818 15.9901 89.2787 15.8791 89.5568 15.6569C89.8349 15.4347 89.974 15.1156 89.974 14.6996C89.974 14.3158 89.845 14.0169 89.5871 13.8028C89.3291 13.5887 88.9664 13.4817 88.4989 13.4817H86.1835V15.9901Z" fill="#111237"/>
<path d="M55.7253 30.7367C54.9534 30.7367 54.2799 30.5829 53.7048 30.2753C53.1297 29.9677 52.6887 29.5474 52.3818 29.0145C52.0748 28.4816 51.9214 27.8874 51.9214 27.2318C51.9214 26.5482 52.0857 25.936 52.4143 25.3954C52.7429 24.8547 53.2002 24.4321 53.7862 24.1276C54.3721 23.8231 55.0371 23.6709 55.7811 23.6709C56.2865 23.6709 56.7468 23.7361 57.1623 23.8666C57.5777 23.9971 57.9327 24.1804 58.2272 24.4166V25.428C57.8924 25.1577 57.5289 24.9472 57.1367 24.7965C56.7445 24.6458 56.3051 24.5704 55.8183 24.5704C55.2355 24.5704 54.7247 24.683 54.2861 24.9083C53.8474 25.1336 53.5087 25.4443 53.27 25.8405C53.0313 26.2367 52.9119 26.6849 52.9119 27.1851C52.9119 27.6885 53.0305 28.1406 53.2676 28.5415C53.5048 28.9423 53.8443 29.2569 54.2861 29.4853C54.7278 29.7137 55.2417 29.8279 55.8276 29.8279C56.302 29.8279 56.7468 29.7494 57.1623 29.5925C57.5777 29.4356 57.9497 29.2095 58.2783 28.9143V29.8791C57.9249 30.1774 57.5382 30.3949 57.1181 30.5316C56.698 30.6684 56.2338 30.7367 55.7253 30.7367ZM62.0776 30.6901C61.5165 30.6901 61.0166 30.5619 60.5779 30.3056C60.1392 30.0492 59.7982 29.6997 59.5549 29.2569C59.3115 28.8141 59.1898 28.324 59.1898 27.7864C59.1898 27.2457 59.3107 26.7556 59.5525 26.3159C59.7943 25.8762 60.1346 25.5298 60.5733 25.2765C61.0119 25.0233 61.5134 24.8967 62.0776 24.8967C62.6481 24.8967 63.1511 25.0233 63.5867 25.2765C64.0222 25.5298 64.3602 25.8754 64.6004 26.3136C64.8407 26.7517 64.9608 27.2426 64.9608 27.7864C64.9608 28.3271 64.8407 28.818 64.6004 29.2592C64.3602 29.7005 64.0215 30.0492 63.5843 30.3056C63.1472 30.5619 62.645 30.6901 62.0776 30.6901ZM62.0776 29.8372C62.4714 29.8372 62.8163 29.7486 63.1123 29.5715C63.4084 29.3944 63.6355 29.1505 63.7936 28.8398C63.9517 28.529 64.0308 28.1779 64.0308 27.7864C64.0308 27.3918 63.9517 27.0399 63.7936 26.7307C63.6355 26.4215 63.4092 26.18 63.1147 26.0059C62.8201 25.8319 62.4745 25.7449 62.0776 25.7449C61.6808 25.7449 61.3351 25.8319 61.0406 26.0059C60.7461 26.18 60.5198 26.4215 60.3617 26.7307C60.2036 27.0399 60.1245 27.3918 60.1245 27.7864C60.1245 28.1779 60.2036 28.529 60.3617 28.8398C60.5198 29.1505 60.7469 29.3944 61.0429 29.5715C61.339 29.7486 61.6839 29.8372 62.0776 29.8372ZM72.2618 24.8967C72.6524 24.8967 72.9872 24.9837 73.2663 25.1577C73.5453 25.3317 73.7584 25.5849 73.9057 25.9174C74.0529 26.2499 74.1266 26.6507 74.1266 27.1199V30.5456H73.2197V27.2737C73.2197 26.7703 73.1151 26.3866 72.9059 26.1225C72.6966 25.8584 72.392 25.7263 71.9921 25.7263C71.7038 25.7263 71.4581 25.7923 71.255 25.9244C71.0519 26.0564 70.8985 26.239 70.7946 26.472C70.6908 26.7051 70.6388 26.9754 70.6388 27.283V30.5456H69.746V27.1013C69.746 26.6787 69.6382 26.3439 69.4228 26.0968C69.2073 25.8498 68.9058 25.7263 68.5183 25.7263C68.2362 25.7263 67.992 25.8001 67.7859 25.9477C67.5797 26.0953 67.4216 26.3027 67.3115 26.5699C67.2015 26.8371 67.1465 27.1448 67.1465 27.4928V30.5456H66.249V25.1064H67.1465V26.1411C67.3077 25.7154 67.5286 25.4016 67.8091 25.1996C68.0897 24.9976 68.433 24.8967 68.8392 24.8967C69.2329 24.8967 69.5724 25.0015 69.8576 25.2113C70.1428 25.421 70.3521 25.7154 70.4854 26.0945C70.6435 25.6937 70.8698 25.3938 71.1643 25.195C71.4588 24.9961 71.8247 24.8967 72.2618 24.8967ZM78.935 24.8967C79.4279 24.8967 79.8666 25.0217 80.251 25.2719C80.6354 25.522 80.9346 25.8638 81.1485 26.2973C81.3624 26.7307 81.4694 27.2147 81.4694 27.7491C81.4694 28.3208 81.3492 28.8304 81.109 29.2779C80.8687 29.7253 80.5471 30.0726 80.144 30.3196C79.741 30.5666 79.307 30.6901 78.842 30.6901C78.3459 30.6901 77.9096 30.5759 77.5329 30.3475C77.1562 30.1192 76.8594 29.8108 76.6424 29.4224V32.3587H75.7449V25.1064H76.6424V26.3229C76.8408 25.8941 77.1376 25.5492 77.5329 25.2882C77.9282 25.0272 78.3955 24.8967 78.935 24.8967ZM78.5536 29.8465C78.9536 29.8465 79.3023 29.7572 79.6 29.5785C79.8976 29.3998 80.1262 29.1544 80.2859 28.8421C80.4455 28.5298 80.5254 28.1779 80.5254 27.7864C80.5254 27.4011 80.4471 27.0523 80.2905 26.74C80.134 26.4278 79.91 26.1823 79.6186 26.0036C79.3271 25.8249 78.9861 25.7356 78.5955 25.7356C78.2049 25.7356 77.86 25.8265 77.5608 26.0083C77.2616 26.1901 77.0307 26.4394 76.8679 26.7563C76.7051 27.0733 76.6238 27.4291 76.6238 27.8237C76.6238 28.2059 76.702 28.5508 76.8586 28.8584C77.0152 29.166 77.2392 29.4076 77.5306 29.5832C77.822 29.7587 78.163 29.8465 78.5536 29.8465ZM82.7901 23.6709H83.6876V30.5456H82.7901V23.6709ZM85.8965 24.589C85.7259 24.589 85.5833 24.5316 85.4686 24.4166C85.3539 24.3016 85.2966 24.1618 85.2966 23.9971C85.2966 23.8355 85.3547 23.6996 85.471 23.5893C85.5872 23.479 85.729 23.4238 85.8965 23.4238C86.0577 23.4238 86.1964 23.479 86.3127 23.5893C86.4289 23.6996 86.487 23.8355 86.487 23.9971C86.487 24.1618 86.4297 24.3016 86.315 24.4166C86.2003 24.5316 86.0608 24.589 85.8965 24.589ZM85.4361 25.1064H86.3429V30.5456H85.4361V25.1064ZM89.9422 24.8967C90.4476 24.8967 90.8886 24.9914 91.2652 25.181C91.6419 25.3705 91.9325 25.6502 92.1372 26.0199C92.3418 26.3897 92.4441 26.8356 92.4441 27.3576V30.5456H91.5419V29.7486C91.359 30.0718 91.1048 30.3157 90.7793 30.4804C90.4538 30.6451 90.0817 30.7274 89.6632 30.7274C89.2788 30.7274 88.9354 30.6482 88.6332 30.4897C88.3309 30.3312 88.0953 30.1137 87.9263 29.8372C87.7574 29.5606 87.6729 29.253 87.6729 28.9143C87.6729 28.5819 87.7581 28.2812 87.9286 28.0125C88.0992 27.7437 88.3386 27.5324 88.6471 27.3786C88.9556 27.2248 89.3082 27.1479 89.7051 27.1479C90.1174 27.1479 90.4817 27.2201 90.7979 27.3646C91.1141 27.5091 91.3621 27.7134 91.5419 27.9775V27.4741C91.5419 27.0981 91.466 26.7804 91.3141 26.521C91.1621 26.2615 90.9529 26.0673 90.6863 25.9384C90.4197 25.8094 90.1143 25.7449 89.7702 25.7449C89.3919 25.7449 89.0579 25.8094 88.768 25.9384C88.4781 26.0673 88.2154 26.2638 87.9798 26.528V25.5818C88.2371 25.3736 88.5231 25.2074 88.8378 25.0831C89.1524 24.9588 89.5206 24.8967 89.9422 24.8967ZM90.0073 29.9723C90.3018 29.9723 90.5654 29.9242 90.7979 29.8279C91.0304 29.7315 91.2125 29.5995 91.3443 29.4317C91.476 29.2639 91.5419 29.079 91.5419 28.877C91.5419 28.6813 91.4799 28.5042 91.3559 28.3457C91.2319 28.1872 91.056 28.0622 90.8281 27.9705C90.6002 27.8788 90.339 27.833 90.0445 27.833C89.7407 27.833 89.4803 27.8788 89.2633 27.9705C89.0463 28.0622 88.8812 28.188 88.768 28.348C88.6549 28.5081 88.5983 28.6906 88.5983 28.8957C88.5983 29.107 88.6541 29.2934 88.7657 29.455C88.8773 29.6166 89.0393 29.7432 89.2517 29.8348C89.464 29.9265 89.7159 29.9723 90.0073 29.9723ZM96.9874 24.8967C97.4432 24.8967 97.8361 24.9984 98.1663 25.2019C98.4964 25.4055 98.7491 25.7022 98.9243 26.0922C99.0994 26.4821 99.187 26.949 99.187 27.4928V30.5456H98.2849V27.7118C98.2849 27.0375 98.157 26.5412 97.9012 26.2227C97.6454 25.9042 97.2494 25.7449 96.7131 25.7449C96.341 25.7449 96.0225 25.8265 95.7574 25.9896C95.4923 26.1528 95.2916 26.3742 95.1552 26.6538C95.0188 26.9335 94.9506 27.2473 94.9506 27.5953V30.5456H94.0531V25.1064H94.9506V26.2203C95.3412 25.3379 96.0202 24.8967 96.9874 24.8967ZM104.005 25.8568H102.386V30.5456H101.47V25.8568H99.9497V25.1064H101.47V24.0251L102.386 23.7221V25.1064H104.005V25.8568Z" fill="black"/>
<path d="M55.7253 30.7367C54.9534 30.7367 54.2799 30.5829 53.7048 30.2753C53.1297 29.9677 52.6887 29.5474 52.3818 29.0145C52.0748 28.4816 51.9214 27.8874 51.9214 27.2318C51.9214 26.5482 52.0857 25.936 52.4143 25.3954C52.7429 24.8547 53.2002 24.4321 53.7862 24.1276C54.3721 23.8231 55.0371 23.6709 55.7811 23.6709C56.2865 23.6709 56.7468 23.7361 57.1623 23.8666C57.5777 23.9971 57.9327 24.1804 58.2272 24.4166V25.428C57.8924 25.1577 57.5289 24.9472 57.1367 24.7965C56.7445 24.6458 56.3051 24.5704 55.8183 24.5704C55.2355 24.5704 54.7247 24.683 54.2861 24.9083C53.8474 25.1336 53.5087 25.4443 53.27 25.8405C53.0313 26.2367 52.9119 26.6849 52.9119 27.1851C52.9119 27.6885 53.0305 28.1406 53.2676 28.5415C53.5048 28.9423 53.8443 29.2569 54.2861 29.4853C54.7278 29.7137 55.2417 29.8279 55.8276 29.8279C56.302 29.8279 56.7468 29.7494 57.1623 29.5925C57.5777 29.4356 57.9497 29.2095 58.2783 28.9143V29.8791C57.9249 30.1774 57.5382 30.3949 57.1181 30.5316C56.698 30.6684 56.2338 30.7367 55.7253 30.7367ZM62.0776 30.6901C61.5165 30.6901 61.0166 30.5619 60.5779 30.3056C60.1392 30.0492 59.7982 29.6997 59.5549 29.2569C59.3115 28.8141 59.1898 28.324 59.1898 27.7864C59.1898 27.2457 59.3107 26.7556 59.5525 26.3159C59.7943 25.8762 60.1346 25.5298 60.5733 25.2765C61.0119 25.0233 61.5134 24.8967 62.0776 24.8967C62.6481 24.8967 63.1511 25.0233 63.5867 25.2765C64.0222 25.5298 64.3602 25.8754 64.6004 26.3136C64.8407 26.7517 64.9608 27.2426 64.9608 27.7864C64.9608 28.3271 64.8407 28.818 64.6004 29.2592C64.3602 29.7005 64.0215 30.0492 63.5843 30.3056C63.1472 30.5619 62.645 30.6901 62.0776 30.6901ZM62.0776 29.8372C62.4714 29.8372 62.8163 29.7486 63.1123 29.5715C63.4084 29.3944 63.6355 29.1505 63.7936 28.8398C63.9517 28.529 64.0308 28.1779 64.0308 27.7864C64.0308 27.3918 63.9517 27.0399 63.7936 26.7307C63.6355 26.4215 63.4092 26.18 63.1147 26.0059C62.8201 25.8319 62.4745 25.7449 62.0776 25.7449C61.6808 25.7449 61.3351 25.8319 61.0406 26.0059C60.7461 26.18 60.5198 26.4215 60.3617 26.7307C60.2036 27.0399 60.1245 27.3918 60.1245 27.7864C60.1245 28.1779 60.2036 28.529 60.3617 28.8398C60.5198 29.1505 60.7469 29.3944 61.0429 29.5715C61.339 29.7486 61.6839 29.8372 62.0776 29.8372ZM72.2618 24.8967C72.6524 24.8967 72.9872 24.9837 73.2663 25.1577C73.5453 25.3317 73.7584 25.5849 73.9057 25.9174C74.0529 26.2499 74.1266 26.6507 74.1266 27.1199V30.5456H73.2197V27.2737C73.2197 26.7703 73.1151 26.3866 72.9059 26.1225C72.6966 25.8584 72.392 25.7263 71.9921 25.7263C71.7038 25.7263 71.4581 25.7923 71.255 25.9244C71.0519 26.0564 70.8985 26.239 70.7946 26.472C70.6908 26.7051 70.6388 26.9754 70.6388 27.283V30.5456H69.746V27.1013C69.746 26.6787 69.6382 26.3439 69.4228 26.0968C69.2073 25.8498 68.9058 25.7263 68.5183 25.7263C68.2362 25.7263 67.992 25.8001 67.7859 25.9477C67.5797 26.0953 67.4216 26.3027 67.3115 26.5699C67.2015 26.8371 67.1465 27.1448 67.1465 27.4928V30.5456H66.249V25.1064H67.1465V26.1411C67.3077 25.7154 67.5286 25.4016 67.8091 25.1996C68.0897 24.9976 68.433 24.8967 68.8392 24.8967C69.2329 24.8967 69.5724 25.0015 69.8576 25.2113C70.1428 25.421 70.3521 25.7154 70.4854 26.0945C70.6435 25.6937 70.8698 25.3938 71.1643 25.195C71.4588 24.9961 71.8247 24.8967 72.2618 24.8967ZM78.935 24.8967C79.4279 24.8967 79.8666 25.0217 80.251 25.2719C80.6354 25.522 80.9346 25.8638 81.1485 26.2973C81.3624 26.7307 81.4694 27.2147 81.4694 27.7491C81.4694 28.3208 81.3492 28.8304 81.109 29.2779C80.8687 29.7253 80.5471 30.0726 80.144 30.3196C79.741 30.5666 79.307 30.6901 78.842 30.6901C78.3459 30.6901 77.9096 30.5759 77.5329 30.3475C77.1562 30.1192 76.8594 29.8108 76.6424 29.4224V32.3587H75.7449V25.1064H76.6424V26.3229C76.8408 25.8941 77.1376 25.5492 77.5329 25.2882C77.9282 25.0272 78.3955 24.8967 78.935 24.8967ZM78.5536 29.8465C78.9536 29.8465 79.3023 29.7572 79.6 29.5785C79.8976 29.3998 80.1262 29.1544 80.2859 28.8421C80.4455 28.5298 80.5254 28.1779 80.5254 27.7864C80.5254 27.4011 80.4471 27.0523 80.2905 26.74C80.134 26.4278 79.91 26.1823 79.6186 26.0036C79.3271 25.8249 78.9861 25.7356 78.5955 25.7356C78.2049 25.7356 77.86 25.8265 77.5608 26.0083C77.2616 26.1901 77.0307 26.4394 76.8679 26.7563C76.7051 27.0733 76.6238 27.4291 76.6238 27.8237C76.6238 28.2059 76.702 28.5508 76.8586 28.8584C77.0152 29.166 77.2392 29.4076 77.5306 29.5832C77.822 29.7587 78.163 29.8465 78.5536 29.8465ZM82.7901 23.6709H83.6876V30.5456H82.7901V23.6709ZM85.8965 24.589C85.7259 24.589 85.5833 24.5316 85.4686 24.4166C85.3539 24.3016 85.2966 24.1618 85.2966 23.9971C85.2966 23.8355 85.3547 23.6996 85.471 23.5893C85.5872 23.479 85.729 23.4238 85.8965 23.4238C86.0577 23.4238 86.1964 23.479 86.3127 23.5893C86.4289 23.6996 86.487 23.8355 86.487 23.9971C86.487 24.1618 86.4297 24.3016 86.315 24.4166C86.2003 24.5316 86.0608 24.589 85.8965 24.589ZM85.4361 25.1064H86.3429V30.5456H85.4361V25.1064ZM89.9422 24.8967C90.4476 24.8967 90.8886 24.9914 91.2652 25.181C91.6419 25.3705 91.9325 25.6502 92.1372 26.0199C92.3418 26.3897 92.4441 26.8356 92.4441 27.3576V30.5456H91.5419V29.7486C91.359 30.0718 91.1048 30.3157 90.7793 30.4804C90.4538 30.6451 90.0817 30.7274 89.6632 30.7274C89.2788 30.7274 88.9354 30.6482 88.6332 30.4897C88.3309 30.3312 88.0953 30.1137 87.9263 29.8372C87.7574 29.5606 87.6729 29.253 87.6729 28.9143C87.6729 28.5819 87.7581 28.2812 87.9286 28.0125C88.0992 27.7437 88.3386 27.5324 88.6471 27.3786C88.9556 27.2248 89.3082 27.1479 89.7051 27.1479C90.1174 27.1479 90.4817 27.2201 90.7979 27.3646C91.1141 27.5091 91.3621 27.7134 91.5419 27.9775V27.4741C91.5419 27.0981 91.466 26.7804 91.3141 26.521C91.1621 26.2615 90.9529 26.0673 90.6863 25.9384C90.4197 25.8094 90.1143 25.7449 89.7702 25.7449C89.3919 25.7449 89.0579 25.8094 88.768 25.9384C88.4781 26.0673 88.2154 26.2638 87.9798 26.528V25.5818C88.2371 25.3736 88.5231 25.2074 88.8378 25.0831C89.1524 24.9588 89.5206 24.8967 89.9422 24.8967ZM90.0073 29.9723C90.3018 29.9723 90.5654 29.9242 90.7979 29.8279C91.0304 29.7315 91.2125 29.5995 91.3443 29.4317C91.476 29.2639 91.5419 29.079 91.5419 28.877C91.5419 28.6813 91.4799 28.5042 91.3559 28.3457C91.2319 28.1872 91.056 28.0622 90.8281 27.9705C90.6002 27.8788 90.339 27.833 90.0445 27.833C89.7407 27.833 89.4803 27.8788 89.2633 27.9705C89.0463 28.0622 88.8812 28.188 88.768 28.348C88.6549 28.5081 88.5983 28.6906 88.5983 28.8957C88.5983 29.107 88.6541 29.2934 88.7657 29.455C88.8773 29.6166 89.0393 29.7432 89.2517 29.8348C89.464 29.9265 89.7159 29.9723 90.0073 29.9723ZM96.9874 24.8967C97.4432 24.8967 97.8361 24.9984 98.1663 25.2019C98.4964 25.4055 98.7491 25.7022 98.9243 26.0922C99.0994 26.4821 99.187 26.949 99.187 27.4928V30.5456H98.2849V27.7118C98.2849 27.0375 98.157 26.5412 97.9012 26.2227C97.6454 25.9042 97.2494 25.7449 96.7131 25.7449C96.341 25.7449 96.0225 25.8265 95.7574 25.9896C95.4923 26.1528 95.2916 26.3742 95.1552 26.6538C95.0188 26.9335 94.9506 27.2473 94.9506 27.5953V30.5456H94.0531V25.1064H94.9506V26.2203C95.3412 25.3379 96.0202 24.8967 96.9874 24.8967ZM104.005 25.8568H102.386V30.5456H101.47V25.8568H99.9497V25.1064H101.47V24.0251L102.386 23.7221V25.1064H104.005V25.8568Z" fill="#111237"/>
</svg>
