<svg width="130" height="42" viewBox="0 0 130 42" fill="none" xmlns="http://www.w3.org/2000/svg">
<path d="M6.28571 0H123.714C127.186 0 130 2.82061 130 6.3V35.7C130 39.1794 127.186 42 123.714 42H6.28571C2.81421 42 0 39.1794 0 35.7V6.3C0 2.82061 2.81421 0 6.28571 0Z" fill="white"/>
<path d="M6.28571 0H41.9048V42H6.28571C2.81421 42 0 39.1794 0 35.7V6.3C0 2.82061 2.81421 0 6.28571 0Z" fill="#3D297F"/>
<path d="M20.5233 24.7518C20.393 24.8933 20.1357 25.009 19.9514 25.009H19.5608C19.3765 25.009 19.1192 24.8929 18.9891 24.7518L16.8594 22.4343C16.7293 22.2928 16.7295 22.0614 16.8599 21.9203L17.6981 21.0125C17.8285 20.871 18.0418 20.871 18.1724 21.0121L19.533 22.4828C19.6637 22.6241 19.877 22.6239 20.0072 22.4824L23.7364 18.4336C23.8667 18.2923 24.0802 18.2915 24.211 18.4322L25.0446 19.329C25.1752 19.4699 25.1758 19.7004 25.0457 19.842L20.5233 24.7518Z" fill="white"/>
<path d="M20.9523 6.2998L21.4275 7.84116H22.9654L21.7213 8.79374L22.1964 10.3351L20.9523 9.38191L19.7085 10.3351L20.1837 8.79374L18.9392 7.84116H20.4771L20.9523 6.2998Z" fill="white"/>
<path d="M20.9523 31.6641L21.4275 33.2059H22.9654L21.7213 34.1583L22.1964 35.6994L20.9523 34.747L19.7085 35.6994L20.1837 34.1583L18.9392 33.2059H20.4771L20.9523 31.6641Z" fill="white"/>
<path d="M27.2792 8.60547L27.7542 10.1468H29.2923L28.0479 11.0998L28.5232 12.6408L27.2792 11.6878L26.0349 12.6408L26.5101 11.0998L25.2661 10.1468H26.8042L27.2792 8.60547Z" fill="white"/>
<path d="M32.3941 25.2002L32.8691 26.7421H34.407L33.1628 27.6946L33.6383 29.2355L32.3941 28.2833L31.1499 29.2355L31.6251 27.6946L30.3809 26.7421H31.9189L32.3941 25.2002Z" fill="white"/>
<path d="M33.606 18.9824L34.0809 20.5236H35.6189L34.3747 21.4761L34.8499 23.0177L33.606 22.0656L32.3618 23.0177L32.8373 21.4761L31.5928 20.5236H33.1305L33.606 18.9824Z" fill="white"/>
<path d="M8.299 18.9824L8.77398 20.5236H10.3118L9.0675 21.4761L9.54305 23.0177L8.299 22.0656L7.05463 23.0177L7.52994 21.4761L6.28564 20.5236H7.8237L8.299 18.9824Z" fill="white"/>
<path d="M9.34661 25.2002L9.82159 26.7421H11.3594L10.1154 27.6946L10.5903 29.2355L9.34661 28.2833L8.10232 29.2355L8.57754 27.6946L7.33325 26.7421H8.87138L9.34661 25.2002Z" fill="white"/>
<path d="M32.3941 12.5996L32.8691 14.1415H34.407L33.1628 15.094L33.6383 16.6349L32.3941 15.6827L31.1499 16.6349L31.6251 15.094L30.3809 14.1415H31.9189L32.3941 12.5996Z" fill="white"/>
<path d="M9.87054 12.5996L10.3455 14.1415H11.8833L10.6394 15.094L11.1143 16.6349L9.87054 15.6827L8.62624 16.6349L9.10147 15.094L7.85718 14.1415H9.39531L9.87054 12.5996Z" fill="white"/>
<path d="M28.4295 30.5117L28.9044 32.0528H30.4424L29.1979 33.0059L29.6734 34.547L28.4295 33.5946L27.1849 34.547L27.6605 33.0059L26.4163 32.0528H27.9543L28.4295 30.5117Z" fill="white"/>
<path d="M14.6257 8.60547L15.1006 10.1468H16.6387L15.3944 11.0998L15.87 12.6408L14.6257 11.6878L13.3816 12.6408L13.8568 11.0998L12.6125 10.1468H14.1504L14.6257 8.60547Z" fill="white"/>
<path d="M13.4751 30.5117L13.9503 32.0536H15.4883L14.2441 33.0058L14.7193 34.547L13.4751 33.5951L12.2312 34.547L12.7063 33.0058L11.4622 32.0536H12.9998L13.4751 30.5117Z" fill="white"/>
<path d="M58.4971 11.4434V18.1365H57.5438V15.1582H53.3911V18.1365H52.4377V11.4434H53.3911V14.2912H57.5438V11.4434H58.4971ZM62.7242 18.2809C62.1631 18.2809 61.6632 18.1528 61.2245 17.8964C60.7858 17.6401 60.4448 17.2905 60.2014 16.8477C59.958 16.4049 59.8364 15.9148 59.8364 15.3772C59.8364 14.8366 59.9573 14.3464 60.1991 13.9067C60.4409 13.467 60.7812 13.1206 61.2198 12.8673C61.6585 12.6141 62.16 12.4875 62.7242 12.4875C63.2946 12.4875 63.7976 12.6141 64.2332 12.8673C64.6688 13.1206 65.0067 13.4663 65.247 13.9044C65.4873 14.3425 65.6074 14.8334 65.6074 15.3772C65.6074 15.9179 65.4873 16.4088 65.247 16.8501C65.0067 17.2913 64.668 17.6401 64.2309 17.8964C63.7938 18.1528 63.2915 18.2809 62.7242 18.2809ZM62.7242 17.428C63.1179 17.428 63.4628 17.3394 63.7589 17.1623C64.055 16.9852 64.2821 16.7413 64.4402 16.4306C64.5983 16.1198 64.6773 15.7687 64.6773 15.3772C64.6773 14.9826 64.5983 14.6307 64.4402 14.3215C64.2821 14.0124 64.0557 13.7708 63.7612 13.5968C63.4667 13.4228 63.121 13.3358 62.7242 13.3358C62.3274 13.3358 61.9817 13.4228 61.6872 13.5968C61.3927 13.7708 61.1664 14.0124 61.0082 14.3215C60.8501 14.6307 60.7711 14.9826 60.7711 15.3772C60.7711 15.7687 60.8501 16.1198 61.0082 16.4306C61.1664 16.7413 61.3934 16.9852 61.6895 17.1623C61.9856 17.3394 62.3305 17.428 62.7242 17.428ZM68.8858 18.2809C68.458 18.2809 68.0434 18.2211 67.6419 18.1015C67.2404 17.9819 66.8738 17.8024 66.5421 17.5632V16.659C66.9079 16.9386 67.2792 17.1437 67.6558 17.2742C68.0325 17.4047 68.427 17.4699 68.8393 17.4699C69.292 17.4699 69.6338 17.3977 69.8647 17.2532C70.0957 17.1087 70.2112 16.8967 70.2112 16.617C70.2112 16.4523 70.1554 16.304 70.0438 16.1719C69.9322 16.0398 69.7121 15.9303 69.3834 15.8433L68.0953 15.5217C67.5621 15.3819 67.1722 15.1869 66.9257 14.9368C66.6793 14.6866 66.556 14.3876 66.556 14.0396C66.556 13.7381 66.6452 13.4701 66.8234 13.2356C67.0017 13.001 67.2598 12.8176 67.5977 12.6856C67.9356 12.5535 68.334 12.4875 68.7928 12.4875C69.5679 12.4875 70.2499 12.6879 70.839 13.0887V13.9929C70.5693 13.7785 70.26 13.6076 69.9112 13.4802C69.5625 13.3528 69.1804 13.2892 68.7649 13.2892C68.3371 13.2892 68.0108 13.3544 67.7861 13.4849C67.5613 13.6154 67.4489 13.7941 67.4489 14.0209C67.4489 14.198 67.5264 14.3448 67.6814 14.4614C67.8364 14.5779 68.086 14.6765 68.4301 14.7573L69.6578 15.051C70.6437 15.2964 71.1366 15.8029 71.1366 16.5704C71.1366 16.9091 71.0451 17.2074 70.8622 17.4653C70.6793 17.7232 70.4181 17.9236 70.0786 18.0665C69.7392 18.2095 69.3416 18.2809 68.8858 18.2809ZM75.6613 13.4476H74.043V18.1365H73.1269V13.4476H71.6063V12.6972H73.1269V11.6159L74.043 11.3129V12.6972H75.6613V13.4476ZM81.4324 15.5124H76.9913C77.0161 15.9101 77.1223 16.2527 77.3099 16.5401C77.4974 16.8275 77.7524 17.0474 78.0748 17.1996C78.3973 17.3519 78.7739 17.428 79.2049 17.428C79.5986 17.428 79.976 17.3573 80.3372 17.2159C80.6984 17.0746 81.003 16.8951 81.251 16.6776V17.5445C80.9782 17.7714 80.648 17.9508 80.2605 18.0829C79.8729 18.2149 79.4761 18.2809 79.07 18.2809C78.4841 18.2809 77.9617 18.1574 77.5028 17.9104C77.044 17.6634 76.6875 17.3177 76.4333 16.8734C76.1791 16.429 76.052 15.921 76.052 15.3493C76.052 14.8272 76.1674 14.3479 76.3984 13.9114C76.6294 13.4748 76.9603 13.1284 77.3912 12.872C77.8222 12.6157 78.3259 12.4875 78.9026 12.4875C79.4234 12.4875 79.8737 12.5854 80.2535 12.7811C80.6333 12.9769 80.9247 13.2612 81.1278 13.6341C81.3308 14.0069 81.4324 14.4544 81.4324 14.9764V15.5124ZM78.8607 13.3358C78.5197 13.3358 78.2205 13.3979 77.9632 13.5222C77.7059 13.6465 77.4982 13.8197 77.3401 14.0419C77.182 14.2641 77.0766 14.5212 77.0239 14.8133H80.5627C80.541 14.3378 80.3822 13.9727 80.0861 13.718C79.79 13.4632 79.3816 13.3358 78.8607 13.3358ZM88.073 11.2617V18.1365H87.1708V16.8734C86.96 17.2959 86.6678 17.6362 86.2942 17.8941C85.9207 18.152 85.4657 18.2809 84.9294 18.2809C84.4364 18.2809 83.9939 18.1559 83.6017 17.9057C83.2095 17.6556 82.9026 17.3115 82.681 16.8734C82.4593 16.4352 82.3485 15.9427 82.3485 15.3959C82.3485 14.8272 82.4678 14.3223 82.7065 13.8811C82.9452 13.4399 83.27 13.0973 83.6808 12.8534C84.0915 12.6094 84.5496 12.4875 85.0549 12.4875C85.5386 12.4875 85.9586 12.604 86.3152 12.837C86.6717 13.0701 86.9569 13.3932 87.1708 13.8065V11.2617H88.073ZM85.1898 17.4373C85.5866 17.4373 85.9377 17.3457 86.2431 17.1623C86.5485 16.979 86.7841 16.7281 86.9499 16.4096C87.1158 16.0911 87.1987 15.7346 87.1987 15.3399C87.1987 14.9546 87.1181 14.6097 86.9569 14.3052C86.7957 14.0007 86.5647 13.7615 86.264 13.5874C85.9633 13.4134 85.6145 13.3264 85.2177 13.3264C84.8271 13.3264 84.486 13.4142 84.1946 13.5898C83.9032 13.7653 83.6784 14.0085 83.5203 14.3192C83.3622 14.6299 83.2832 14.9826 83.2832 15.3772C83.2832 15.7718 83.3614 16.1253 83.518 16.4376C83.6746 16.7498 83.897 16.9945 84.1853 17.1717C84.4736 17.3488 84.8085 17.4373 85.1898 17.4373ZM92.8628 12.1799C92.6923 12.1799 92.5497 12.1224 92.435 12.0074C92.3202 11.8924 92.2629 11.7526 92.2629 11.5879C92.2629 11.4264 92.321 11.2904 92.4373 11.1801C92.5535 11.0698 92.6954 11.0146 92.8628 11.0146C93.024 11.0146 93.1627 11.0698 93.279 11.1801C93.3952 11.2904 93.4534 11.4264 93.4534 11.5879C93.4534 11.7526 93.396 11.8924 93.2813 12.0074C93.1666 12.1224 93.0271 12.1799 92.8628 12.1799ZM92.4024 12.6972H93.3092V18.1365H92.4024V12.6972ZM97.9642 12.4875C98.4199 12.4875 98.8128 12.5892 99.143 12.7928C99.4732 12.9963 99.7258 13.293 99.901 13.683C100.076 14.073 100.164 14.5398 100.164 15.0836V18.1365H99.2616V15.3026C99.2616 14.6284 99.1337 14.132 98.8779 13.8135C98.6222 13.495 98.2261 13.3358 97.6898 13.3358C97.3178 13.3358 96.9992 13.4173 96.7342 13.5805C96.4691 13.7436 96.2683 13.965 96.1319 14.2446C95.9955 14.5243 95.9273 14.8381 95.9273 15.1861V18.1365H95.0298V12.6972H95.9273V13.8112C96.318 12.9287 96.9969 12.4875 97.9642 12.4875Z" fill="black"/>
<path d="M58.4971 11.4434V18.1365H57.5438V15.1582H53.3911V18.1365H52.4377V11.4434H53.3911V14.2912H57.5438V11.4434H58.4971ZM62.7242 18.2809C62.1631 18.2809 61.6632 18.1528 61.2245 17.8964C60.7858 17.6401 60.4448 17.2905 60.2014 16.8477C59.958 16.4049 59.8364 15.9148 59.8364 15.3772C59.8364 14.8366 59.9573 14.3464 60.1991 13.9067C60.4409 13.467 60.7812 13.1206 61.2198 12.8673C61.6585 12.6141 62.16 12.4875 62.7242 12.4875C63.2946 12.4875 63.7976 12.6141 64.2332 12.8673C64.6688 13.1206 65.0067 13.4663 65.247 13.9044C65.4873 14.3425 65.6074 14.8334 65.6074 15.3772C65.6074 15.9179 65.4873 16.4088 65.247 16.8501C65.0067 17.2913 64.668 17.6401 64.2309 17.8964C63.7938 18.1528 63.2915 18.2809 62.7242 18.2809ZM62.7242 17.428C63.1179 17.428 63.4628 17.3394 63.7589 17.1623C64.055 16.9852 64.2821 16.7413 64.4402 16.4306C64.5983 16.1198 64.6773 15.7687 64.6773 15.3772C64.6773 14.9826 64.5983 14.6307 64.4402 14.3215C64.2821 14.0124 64.0557 13.7708 63.7612 13.5968C63.4667 13.4228 63.121 13.3358 62.7242 13.3358C62.3274 13.3358 61.9817 13.4228 61.6872 13.5968C61.3927 13.7708 61.1664 14.0124 61.0082 14.3215C60.8501 14.6307 60.7711 14.9826 60.7711 15.3772C60.7711 15.7687 60.8501 16.1198 61.0082 16.4306C61.1664 16.7413 61.3934 16.9852 61.6895 17.1623C61.9856 17.3394 62.3305 17.428 62.7242 17.428ZM68.8858 18.2809C68.458 18.2809 68.0434 18.2211 67.6419 18.1015C67.2404 17.9819 66.8738 17.8024 66.5421 17.5632V16.659C66.9079 16.9386 67.2792 17.1437 67.6558 17.2742C68.0325 17.4047 68.427 17.4699 68.8393 17.4699C69.292 17.4699 69.6338 17.3977 69.8647 17.2532C70.0957 17.1087 70.2112 16.8967 70.2112 16.617C70.2112 16.4523 70.1554 16.304 70.0438 16.1719C69.9322 16.0398 69.7121 15.9303 69.3834 15.8433L68.0953 15.5217C67.5621 15.3819 67.1722 15.1869 66.9257 14.9368C66.6793 14.6866 66.556 14.3876 66.556 14.0396C66.556 13.7381 66.6452 13.4701 66.8234 13.2356C67.0017 13.001 67.2598 12.8176 67.5977 12.6856C67.9356 12.5535 68.334 12.4875 68.7928 12.4875C69.5679 12.4875 70.2499 12.6879 70.839 13.0887V13.9929C70.5693 13.7785 70.26 13.6076 69.9112 13.4802C69.5625 13.3528 69.1804 13.2892 68.7649 13.2892C68.3371 13.2892 68.0108 13.3544 67.7861 13.4849C67.5613 13.6154 67.4489 13.7941 67.4489 14.0209C67.4489 14.198 67.5264 14.3448 67.6814 14.4614C67.8364 14.5779 68.086 14.6765 68.4301 14.7573L69.6578 15.051C70.6437 15.2964 71.1366 15.8029 71.1366 16.5704C71.1366 16.9091 71.0451 17.2074 70.8622 17.4653C70.6793 17.7232 70.4181 17.9236 70.0786 18.0665C69.7392 18.2095 69.3416 18.2809 68.8858 18.2809ZM75.6613 13.4476H74.043V18.1365H73.1269V13.4476H71.6063V12.6972H73.1269V11.6159L74.043 11.3129V12.6972H75.6613V13.4476ZM81.4324 15.5124H76.9913C77.0161 15.9101 77.1223 16.2527 77.3099 16.5401C77.4974 16.8275 77.7524 17.0474 78.0748 17.1996C78.3973 17.3519 78.7739 17.428 79.2049 17.428C79.5986 17.428 79.976 17.3573 80.3372 17.2159C80.6984 17.0746 81.003 16.8951 81.251 16.6776V17.5445C80.9782 17.7714 80.648 17.9508 80.2605 18.0829C79.8729 18.2149 79.4761 18.2809 79.07 18.2809C78.4841 18.2809 77.9617 18.1574 77.5028 17.9104C77.044 17.6634 76.6875 17.3177 76.4333 16.8734C76.1791 16.429 76.052 15.921 76.052 15.3493C76.052 14.8272 76.1674 14.3479 76.3984 13.9114C76.6294 13.4748 76.9603 13.1284 77.3912 12.872C77.8222 12.6157 78.3259 12.4875 78.9026 12.4875C79.4234 12.4875 79.8737 12.5854 80.2535 12.7811C80.6333 12.9769 80.9247 13.2612 81.1278 13.6341C81.3308 14.0069 81.4324 14.4544 81.4324 14.9764V15.5124ZM78.8607 13.3358C78.5197 13.3358 78.2205 13.3979 77.9632 13.5222C77.7059 13.6465 77.4982 13.8197 77.3401 14.0419C77.182 14.2641 77.0766 14.5212 77.0239 14.8133H80.5627C80.541 14.3378 80.3822 13.9727 80.0861 13.718C79.79 13.4632 79.3816 13.3358 78.8607 13.3358ZM88.073 11.2617V18.1365H87.1708V16.8734C86.96 17.2959 86.6678 17.6362 86.2942 17.8941C85.9207 18.152 85.4657 18.2809 84.9294 18.2809C84.4364 18.2809 83.9939 18.1559 83.6017 17.9057C83.2095 17.6556 82.9026 17.3115 82.681 16.8734C82.4593 16.4352 82.3485 15.9427 82.3485 15.3959C82.3485 14.8272 82.4678 14.3223 82.7065 13.8811C82.9452 13.4399 83.27 13.0973 83.6808 12.8534C84.0915 12.6094 84.5496 12.4875 85.0549 12.4875C85.5386 12.4875 85.9586 12.604 86.3152 12.837C86.6717 13.0701 86.9569 13.3932 87.1708 13.8065V11.2617H88.073ZM85.1898 17.4373C85.5866 17.4373 85.9377 17.3457 86.2431 17.1623C86.5485 16.979 86.7841 16.7281 86.9499 16.4096C87.1158 16.0911 87.1987 15.7346 87.1987 15.3399C87.1987 14.9546 87.1181 14.6097 86.9569 14.3052C86.7957 14.0007 86.5647 13.7615 86.264 13.5874C85.9633 13.4134 85.6145 13.3264 85.2177 13.3264C84.8271 13.3264 84.486 13.4142 84.1946 13.5898C83.9032 13.7653 83.6784 14.0085 83.5203 14.3192C83.3622 14.6299 83.2832 14.9826 83.2832 15.3772C83.2832 15.7718 83.3614 16.1253 83.518 16.4376C83.6746 16.7498 83.897 16.9945 84.1853 17.1717C84.4736 17.3488 84.8085 17.4373 85.1898 17.4373ZM92.8628 12.1799C92.6923 12.1799 92.5497 12.1224 92.435 12.0074C92.3202 11.8924 92.2629 11.7526 92.2629 11.5879C92.2629 11.4264 92.321 11.2904 92.4373 11.1801C92.5535 11.0698 92.6954 11.0146 92.8628 11.0146C93.024 11.0146 93.1627 11.0698 93.279 11.1801C93.3952 11.2904 93.4534 11.4264 93.4534 11.5879C93.4534 11.7526 93.396 11.8924 93.2813 12.0074C93.1666 12.1224 93.0271 12.1799 92.8628 12.1799ZM92.4024 12.6972H93.3092V18.1365H92.4024V12.6972ZM97.9642 12.4875C98.4199 12.4875 98.8128 12.5892 99.143 12.7928C99.4732 12.9963 99.7258 13.293 99.901 13.683C100.076 14.073 100.164 14.5398 100.164 15.0836V18.1365H99.2616V15.3026C99.2616 14.6284 99.1337 14.132 98.8779 13.8135C98.6222 13.495 98.2261 13.3358 97.6898 13.3358C97.3178 13.3358 96.9992 13.4173 96.7342 13.5805C96.4691 13.7436 96.2683 13.965 96.1319 14.2446C95.9955 14.5243 95.9273 14.8381 95.9273 15.1861V18.1365H95.0298V12.6972H95.9273V13.8112C96.318 12.9287 96.9969 12.4875 97.9642 12.4875Z" fill="#111237"/>
<path d="M59.7592 27.9309V29.5911H52.4927V20.9023H59.7109V22.5686H54.663V24.3258H59.4207V25.889H54.663V27.9309H59.7592ZM68.8636 22.4232V29.5911H66.7598V28.1309C66.518 28.7004 66.1643 29.1296 65.6988 29.4184C65.2333 29.7073 64.6842 29.8517 64.0515 29.8517C63.1164 29.8517 62.398 29.58 61.8963 29.0367C61.3945 28.4934 61.1436 27.7148 61.1436 26.7009V22.4232H63.2474V26.2647C63.2474 26.911 63.3875 27.3917 63.6676 27.7067C63.9477 28.0218 64.3698 28.1794 64.9341 28.1794C65.5104 28.1794 65.9588 28.0006 66.2792 27.6431C66.5996 27.2856 66.7598 26.7959 66.7598 26.1738V22.4232H68.8636ZM74.8364 22.2838C75.2515 22.2838 75.5981 22.3828 75.8762 22.5807V24.5196C75.7311 24.4187 75.5578 24.3379 75.3563 24.2773C75.1548 24.2167 74.9311 24.1864 74.6853 24.1864C74.3024 24.1864 73.9689 24.2742 73.6848 24.45C73.4006 24.6257 73.178 24.8943 73.0168 25.2558C72.8556 25.6174 72.775 26.0647 72.775 26.5979V29.5911H70.6591V22.4232H72.7447V24.3924C72.914 23.6855 73.176 23.1574 73.5306 22.8079C73.8853 22.4585 74.3206 22.2838 74.8364 22.2838ZM80.634 29.8093C79.7795 29.8093 79.0319 29.6386 78.3911 29.2973C77.7503 28.9559 77.2576 28.4914 76.913 27.9037C76.5684 27.3159 76.3961 26.6605 76.3961 25.9375C76.3961 25.2104 76.5684 24.558 76.913 23.9804C77.2576 23.4027 77.7503 22.9493 78.3911 22.6201C79.0319 22.2909 79.7795 22.1263 80.634 22.1263C81.4924 22.1263 82.242 22.2909 82.8828 22.6201C83.5237 22.9493 84.0153 23.4027 84.3579 23.9804C84.7005 24.558 84.8718 25.2104 84.8718 25.9375C84.8718 26.6605 84.7005 27.3169 84.3579 27.9067C84.0153 28.4965 83.5237 28.961 82.8828 29.3003C82.242 29.6396 81.4924 29.8093 80.634 29.8093ZM80.634 28.1188C81.0612 28.1188 81.434 28.0269 81.7524 27.8431C82.0707 27.6593 82.3156 27.4048 82.4869 27.0796C82.6582 26.7544 82.7438 26.3818 82.7438 25.9617C82.7438 25.5416 82.6592 25.17 82.4899 24.8468C82.3206 24.5237 82.0768 24.2722 81.7584 24.0925C81.44 23.9127 81.0652 23.8228 80.634 23.8228C80.2027 23.8228 79.8279 23.9127 79.5095 24.0925C79.1911 24.2722 78.9463 24.5237 78.775 24.8468C78.6037 25.17 78.5181 25.5416 78.5181 25.9617C78.5181 26.3818 78.6037 26.7544 78.775 27.0796C78.9463 27.4048 79.1911 27.6593 79.5095 27.8431C79.8279 28.0269 80.2027 28.1188 80.634 28.1188ZM91.3524 22.1263C92.0134 22.1263 92.5978 22.2919 93.1056 22.6231C93.6134 22.9544 94.0053 23.4098 94.2814 23.9895C94.5575 24.5691 94.6955 25.2164 94.6955 25.9314C94.6955 26.6868 94.5434 27.3594 94.2391 27.9491C93.9348 28.5389 93.5207 28.9963 92.9968 29.3215C92.4728 29.6467 91.8905 29.8093 91.2497 29.8093C90.5645 29.8093 89.9721 29.6638 89.4723 29.373C88.9726 29.0822 88.5857 28.6621 88.3116 28.1127V31.9481H86.2138V22.4232H88.3116V24.1197C88.5413 23.4936 88.9151 23.0049 89.433 22.6534C89.9509 22.302 90.5907 22.1263 91.3524 22.1263ZM90.3791 28.1006C90.8063 28.1006 91.1811 28.0087 91.5036 27.8249C91.826 27.6411 92.0738 27.3866 92.2471 27.0614C92.4204 26.7363 92.5071 26.3697 92.5071 25.9617C92.5071 25.5578 92.4225 25.1942 92.2532 24.8711C92.0839 24.5479 91.8411 24.2944 91.5247 24.1107C91.2083 23.9269 90.8386 23.835 90.4154 23.835C89.9922 23.835 89.6194 23.9289 89.297 24.1167C88.9746 24.3045 88.7267 24.5621 88.5534 24.8892C88.3801 25.2164 88.2935 25.586 88.2935 25.9981C88.2935 26.402 88.3781 26.7625 88.5474 27.0796C88.7166 27.3967 88.9585 27.6462 89.2728 27.8279C89.5872 28.0097 89.9559 28.1006 90.3791 28.1006ZM103.419 26.3374H97.7122C97.8291 26.8989 98.1273 27.3341 98.6069 27.6431C99.0865 27.9521 99.7172 28.1066 100.499 28.1066C101.015 28.1066 101.498 28.0299 101.947 27.8764C102.396 27.7229 102.806 27.5129 103.177 27.2462V28.8822C102.794 29.165 102.324 29.3902 101.766 29.5578C101.207 29.7254 100.626 29.8093 100.022 29.8093C99.1389 29.8093 98.3651 29.6457 97.7001 29.3185C97.0351 28.9913 96.5222 28.5328 96.1615 27.943C95.8008 27.3533 95.6205 26.6767 95.6205 25.9132C95.6205 25.2023 95.7847 24.56 96.1132 23.9864C96.4416 23.4128 96.9152 22.9594 97.5338 22.6262C98.1525 22.2929 98.8789 22.1263 99.7132 22.1263C100.507 22.1263 101.181 22.2646 101.735 22.5413C102.29 22.818 102.709 23.2139 102.993 23.7289C103.277 24.244 103.419 24.8589 103.419 25.5739V26.3374ZM99.7616 23.7623C99.2094 23.7623 98.76 23.8945 98.4134 24.1591C98.0668 24.4237 97.8452 24.7782 97.7484 25.2225H101.642C101.597 24.7539 101.413 24.3934 101.089 24.1409C100.764 23.8885 100.322 23.7623 99.7616 23.7623Z" fill="black"/>
<path d="M59.7592 27.9309V29.5911H52.4927V20.9023H59.7109V22.5686H54.663V24.3258H59.4207V25.889H54.663V27.9309H59.7592ZM68.8636 22.4232V29.5911H66.7598V28.1309C66.518 28.7004 66.1643 29.1296 65.6988 29.4184C65.2333 29.7073 64.6842 29.8517 64.0515 29.8517C63.1164 29.8517 62.398 29.58 61.8963 29.0367C61.3945 28.4934 61.1436 27.7148 61.1436 26.7009V22.4232H63.2474V26.2647C63.2474 26.911 63.3875 27.3917 63.6676 27.7067C63.9477 28.0218 64.3698 28.1794 64.9341 28.1794C65.5104 28.1794 65.9588 28.0006 66.2792 27.6431C66.5996 27.2856 66.7598 26.7959 66.7598 26.1738V22.4232H68.8636ZM74.8364 22.2838C75.2515 22.2838 75.5981 22.3828 75.8762 22.5807V24.5196C75.7311 24.4187 75.5578 24.3379 75.3563 24.2773C75.1548 24.2167 74.9311 24.1864 74.6853 24.1864C74.3024 24.1864 73.9689 24.2742 73.6848 24.45C73.4006 24.6257 73.178 24.8943 73.0168 25.2558C72.8556 25.6174 72.775 26.0647 72.775 26.5979V29.5911H70.6591V22.4232H72.7447V24.3924C72.914 23.6855 73.176 23.1574 73.5306 22.8079C73.8853 22.4585 74.3206 22.2838 74.8364 22.2838ZM80.634 29.8093C79.7795 29.8093 79.0319 29.6386 78.3911 29.2973C77.7503 28.9559 77.2576 28.4914 76.913 27.9037C76.5684 27.3159 76.3961 26.6605 76.3961 25.9375C76.3961 25.2104 76.5684 24.558 76.913 23.9804C77.2576 23.4027 77.7503 22.9493 78.3911 22.6201C79.0319 22.2909 79.7795 22.1263 80.634 22.1263C81.4924 22.1263 82.242 22.2909 82.8828 22.6201C83.5237 22.9493 84.0153 23.4027 84.3579 23.9804C84.7005 24.558 84.8718 25.2104 84.8718 25.9375C84.8718 26.6605 84.7005 27.3169 84.3579 27.9067C84.0153 28.4965 83.5237 28.961 82.8828 29.3003C82.242 29.6396 81.4924 29.8093 80.634 29.8093ZM80.634 28.1188C81.0612 28.1188 81.434 28.0269 81.7524 27.8431C82.0707 27.6593 82.3156 27.4048 82.4869 27.0796C82.6582 26.7544 82.7438 26.3818 82.7438 25.9617C82.7438 25.5416 82.6592 25.17 82.4899 24.8468C82.3206 24.5237 82.0768 24.2722 81.7584 24.0925C81.44 23.9127 81.0652 23.8228 80.634 23.8228C80.2027 23.8228 79.8279 23.9127 79.5095 24.0925C79.1911 24.2722 78.9463 24.5237 78.775 24.8468C78.6037 25.17 78.5181 25.5416 78.5181 25.9617C78.5181 26.3818 78.6037 26.7544 78.775 27.0796C78.9463 27.4048 79.1911 27.6593 79.5095 27.8431C79.8279 28.0269 80.2027 28.1188 80.634 28.1188ZM91.3524 22.1263C92.0134 22.1263 92.5978 22.2919 93.1056 22.6231C93.6134 22.9544 94.0053 23.4098 94.2814 23.9895C94.5575 24.5691 94.6955 25.2164 94.6955 25.9314C94.6955 26.6868 94.5434 27.3594 94.2391 27.9491C93.9348 28.5389 93.5207 28.9963 92.9968 29.3215C92.4728 29.6467 91.8905 29.8093 91.2497 29.8093C90.5645 29.8093 89.9721 29.6638 89.4723 29.373C88.9726 29.0822 88.5857 28.6621 88.3116 28.1127V31.9481H86.2138V22.4232H88.3116V24.1197C88.5413 23.4936 88.9151 23.0049 89.433 22.6534C89.9509 22.302 90.5907 22.1263 91.3524 22.1263ZM90.3791 28.1006C90.8063 28.1006 91.1811 28.0087 91.5036 27.8249C91.826 27.6411 92.0738 27.3866 92.2471 27.0614C92.4204 26.7363 92.5071 26.3697 92.5071 25.9617C92.5071 25.5578 92.4225 25.1942 92.2532 24.8711C92.0839 24.5479 91.8411 24.2944 91.5247 24.1107C91.2083 23.9269 90.8386 23.835 90.4154 23.835C89.9922 23.835 89.6194 23.9289 89.297 24.1167C88.9746 24.3045 88.7267 24.5621 88.5534 24.8892C88.3801 25.2164 88.2935 25.586 88.2935 25.9981C88.2935 26.402 88.3781 26.7625 88.5474 27.0796C88.7166 27.3967 88.9585 27.6462 89.2728 27.8279C89.5872 28.0097 89.9559 28.1006 90.3791 28.1006ZM103.419 26.3374H97.7122C97.8291 26.8989 98.1273 27.3341 98.6069 27.6431C99.0865 27.9521 99.7172 28.1066 100.499 28.1066C101.015 28.1066 101.498 28.0299 101.947 27.8764C102.396 27.7229 102.806 27.5129 103.177 27.2462V28.8822C102.794 29.165 102.324 29.3902 101.766 29.5578C101.207 29.7254 100.626 29.8093 100.022 29.8093C99.1389 29.8093 98.3651 29.6457 97.7001 29.3185C97.0351 28.9913 96.5222 28.5328 96.1615 27.943C95.8008 27.3533 95.6205 26.6767 95.6205 25.9132C95.6205 25.2023 95.7847 24.56 96.1132 23.9864C96.4416 23.4128 96.9152 22.9594 97.5338 22.6262C98.1525 22.2929 98.8789 22.1263 99.7132 22.1263C100.507 22.1263 101.181 22.2646 101.735 22.5413C102.29 22.818 102.709 23.2139 102.993 23.7289C103.277 24.244 103.419 24.8589 103.419 25.5739V26.3374ZM99.7616 23.7623C99.2094 23.7623 98.76 23.8945 98.4134 24.1591C98.0668 24.4237 97.8452 24.7782 97.7484 25.2225H101.642C101.597 24.7539 101.413 24.3934 101.089 24.1409C100.764 23.8885 100.322 23.7623 99.7616 23.7623Z" fill="#111237"/>
</svg>
